<svg width="400" height="250" viewBox="0 0 400 250" fill="none" xmlns="http://www.w3.org/2000/svg">
<g clip-path="url(#clip0_1_6543)">
<rect width="400" height="250" fill="white"/>
<rect x="1" y="-16" width="32" height="30" fill="#0683B8"/>
<rect x="86" y="46" width="10" height="10.8333" fill="#0683B8"/>
<rect x="-4" y="112" width="10" height="10.8333" fill="#0683B8"/>
<rect x="-4" y="27" width="10" height="10.8333" fill="#0683B8"/>
<rect x="53" y="30" width="10" height="10" fill="#0683B8"/>
<rect x="21" y="4" width="24" height="22.5" fill="#42C1D7"/>
<rect x="81" y="-20" width="24" height="22.5" fill="#42C1D7"/>
<rect x="96" y="21" width="12" height="11.25" fill="#42C1D7"/>
<rect x="61" y="42" width="16" height="15" fill="#42C1D7"/>
<rect x="26" y="73" width="12" height="11.25" fill="#42C1D7"/>
<rect x="23" y="94" width="10" height="9.375" fill="#42C1D7"/>
<rect x="2" y="61" width="12" height="11.25" fill="#42C1D7"/>
<rect x="-5" y="137" width="16" height="15" fill="#42C1D7"/>
<rect x="17" y="31.5" width="32" height="30" fill="#C4C4C4"/>
<rect x="55" y="7" width="16" height="15" fill="#C4C4C4"/>
<rect x="68" y="27.5" width="8" height="7.5" fill="#C4C4C4"/>
<rect x="45" y="68" width="8" height="7.5" fill="#C4C4C4"/>
<rect x="48" y="89.5" width="16" height="15" fill="#C4C4C4"/>
<rect x="-5" y="75.5" width="16" height="15" fill="#C4C4C4"/>
<rect x="19" y="121" width="12" height="11.25" fill="#C4C4C4"/>
<rect x="406.336" y="247.557" width="19.542" height="18.3206" transform="rotate(-180 406.336 247.557)" fill="#0683B8"/>
<rect x="337.328" y="250" width="7.32824" height="7.93893" transform="rotate(-180 337.328 250)" fill="#0683B8"/>
<rect x="354.427" y="209.695" width="6.10687" height="6.61578" transform="rotate(-180 354.427 209.695)" fill="#0683B8"/>
<rect x="374.58" y="219.466" width="6.10687" height="6.10687" transform="rotate(-180 374.58 219.466)" fill="#0683B8"/>
<rect x="394.122" y="235.344" width="14.6565" height="13.7405" transform="rotate(-180 394.122 235.344)" fill="#42C1D7"/>
<rect x="375.802" y="248.779" width="9.77099" height="9.16031" transform="rotate(-180 375.802 248.779)" fill="#42C1D7"/>
<rect x="357.481" y="250" width="14.6565" height="13.7405" transform="rotate(-180 357.481 250)" fill="#42C1D7"/>
<rect x="348.321" y="224.962" width="7.32824" height="6.87023" transform="rotate(-180 348.321 224.962)" fill="#42C1D7"/>
<rect x="369.695" y="212.137" width="9.77099" height="9.16031" transform="rotate(-180 369.695 212.137)" fill="#42C1D7"/>
<rect x="391.069" y="193.206" width="7.32824" height="6.87023" transform="rotate(-180 391.069 193.206)" fill="#42C1D7"/>
<rect x="392.901" y="180.382" width="6.10687" height="5.72519" transform="rotate(-180 392.901 180.382)" fill="#42C1D7"/>
<rect x="405.725" y="200.534" width="7.32824" height="6.87023" transform="rotate(-180 405.725 200.534)" fill="#42C1D7"/>
<rect x="396.565" y="218.55" width="19.542" height="18.3206" transform="rotate(-180 396.565 218.55)" fill="#C4C4C4"/>
<rect x="373.359" y="233.511" width="9.77099" height="9.16031" transform="rotate(-180 373.359 233.511)" fill="#C4C4C4"/>
<rect x="365.42" y="220.992" width="4.8855" height="4.58015" transform="rotate(-180 365.42 220.992)" fill="#C4C4C4"/>
<rect x="379.466" y="196.26" width="4.8855" height="4.58015" transform="rotate(-180 379.466 196.26)" fill="#C4C4C4"/>
<rect x="377.634" y="183.13" width="9.77099" height="9.16031" transform="rotate(-180 377.634 183.13)" fill="#C4C4C4"/>
<rect x="395.344" y="163.893" width="7.32824" height="6.87023" transform="rotate(-180 395.344 163.893)" fill="#C4C4C4"/>
</g>
<defs>
<clipPath id="clip0_1_6543">
<rect width="400" height="250" fill="white"/>
</clipPath>
</defs>
</svg>
