<svg width="400" height="56" viewBox="0 0 400 56" fill="none" xmlns="http://www.w3.org/2000/svg">
<g clip-path="url(#clip0_1_505)">
<line x1="16.0116" y1="80.2457" x2="16.0116" y2="44.2457" stroke="#E2C493" stroke-width="1.5"/>
<line x1="21.0116" y1="77.2457" x2="21.0116" y2="47.2457" stroke="#E2C493" stroke-width="1.5"/>
<line x1="26.0116" y1="74.2457" x2="26.0116" y2="50.2457" stroke="#E2C493" stroke-width="1.5"/>
<line x1="31.0116" y1="71.2457" x2="31.0116" y2="53.2457" stroke="#E2C493" stroke-width="1.5"/>
<line x1="1.01163" y1="71.2457" x2="1.01163" y2="53.2457" stroke="#E2C493" stroke-width="1.5"/>
<line x1="6.01163" y1="74.2457" x2="6.01163" y2="50.2457" stroke="#E2C493" stroke-width="1.5"/>
<line x1="11.0116" y1="77.2457" x2="11.0116" y2="47.2457" stroke="#E2C493" stroke-width="1.5"/>
<line x1="120.719" y1="80.2457" x2="120.719" y2="44.2457" stroke="#E2C493" stroke-width="1.5"/>
<line x1="125.719" y1="77.2457" x2="125.719" y2="47.2457" stroke="#E2C493" stroke-width="1.5"/>
<line x1="130.719" y1="74.2457" x2="130.719" y2="50.2457" stroke="#E2C493" stroke-width="1.5"/>
<line x1="135.719" y1="71.2457" x2="135.719" y2="53.2457" stroke="#E2C493" stroke-width="1.5"/>
<line x1="105.719" y1="71.2457" x2="105.719" y2="53.2457" stroke="#E2C493" stroke-width="1.5"/>
<line x1="110.719" y1="74.2457" x2="110.719" y2="50.2457" stroke="#E2C493" stroke-width="1.5"/>
<line x1="115.719" y1="77.2457" x2="115.719" y2="47.2457" stroke="#E2C493" stroke-width="1.5"/>
<line y1="-0.75" x2="18" y2="-0.75" transform="matrix(-0.866025 0.5 0.5 0.866025 52.8212 49.7457)" stroke="#E2C493" stroke-width="1.5"/>
<line y1="-0.75" x2="24" y2="-0.75" transform="matrix(-0.866025 0.5 0.5 0.866025 57.9193 52.5758)" stroke="#E2C493" stroke-width="1.5"/>
<line y1="-0.75" x2="30" y2="-0.75" transform="matrix(-0.866025 0.5 0.5 0.866025 63.0174 55.4059)" stroke="#E2C493" stroke-width="1.5"/>
<line y1="-0.75" x2="30" y2="-0.75" transform="matrix(0.866025 0.5 0.5 -0.866025 75.2135 54.4059)" stroke="#E2C493" stroke-width="1.5"/>
<line y1="-0.75" x2="24" y2="-0.75" transform="matrix(0.866025 0.5 0.5 -0.866025 80.3116 51.5758)" stroke="#E2C493" stroke-width="1.5"/>
<line y1="-0.75" x2="18" y2="-0.75" transform="matrix(0.866025 0.5 0.5 -0.866025 85.4097 48.7457)" stroke="#E2C493" stroke-width="1.5"/>
<line y1="-0.75" x2="18" y2="-0.75" transform="matrix(-0.866025 0.5 0.5 0.866025 157.529 49.7457)" stroke="#E2C493" stroke-width="1.5"/>
<line y1="-0.75" x2="24" y2="-0.75" transform="matrix(-0.866025 0.5 0.5 0.866025 162.627 52.5758)" stroke="#E2C493" stroke-width="1.5"/>
<line y1="-0.75" x2="30" y2="-0.75" transform="matrix(-0.866025 0.5 0.5 0.866025 167.725 55.4059)" stroke="#E2C493" stroke-width="1.5"/>
<line y1="-0.75" x2="30" y2="-0.75" transform="matrix(0.866025 0.5 0.5 -0.866025 179.921 54.4059)" stroke="#E2C493" stroke-width="1.5"/>
<line y1="-0.75" x2="24" y2="-0.75" transform="matrix(0.866025 0.5 0.5 -0.866025 185.019 51.5758)" stroke="#E2C493" stroke-width="1.5"/>
<line y1="-0.75" x2="18" y2="-0.75" transform="matrix(0.866025 0.5 0.5 -0.866025 190.117 48.7457)" stroke="#E2C493" stroke-width="1.5"/>
<line x1="225.427" y1="80.2457" x2="225.427" y2="44.2457" stroke="#E2C493" stroke-width="1.5"/>
<line x1="230.427" y1="77.2457" x2="230.427" y2="47.2457" stroke="#E2C493" stroke-width="1.5"/>
<line x1="235.427" y1="74.2457" x2="235.427" y2="50.2457" stroke="#E2C493" stroke-width="1.5"/>
<line x1="240.427" y1="71.2457" x2="240.427" y2="53.2457" stroke="#E2C493" stroke-width="1.5"/>
<line x1="210.427" y1="71.2457" x2="210.427" y2="53.2457" stroke="#E2C493" stroke-width="1.5"/>
<line x1="215.427" y1="74.2457" x2="215.427" y2="50.2457" stroke="#E2C493" stroke-width="1.5"/>
<line x1="220.427" y1="77.2457" x2="220.427" y2="47.2457" stroke="#E2C493" stroke-width="1.5"/>
<line x1="330.135" y1="80.2457" x2="330.135" y2="44.2457" stroke="#E2C493" stroke-width="1.5"/>
<line x1="335.135" y1="77.2457" x2="335.135" y2="47.2457" stroke="#E2C493" stroke-width="1.5"/>
<line x1="340.135" y1="74.2457" x2="340.135" y2="50.2457" stroke="#E2C493" stroke-width="1.5"/>
<line x1="345.135" y1="71.2457" x2="345.135" y2="53.2457" stroke="#E2C493" stroke-width="1.5"/>
<line x1="315.135" y1="71.2457" x2="315.135" y2="53.2457" stroke="#E2C493" stroke-width="1.5"/>
<line x1="320.135" y1="74.2457" x2="320.135" y2="50.2457" stroke="#E2C493" stroke-width="1.5"/>
<line x1="325.135" y1="77.2457" x2="325.135" y2="47.2457" stroke="#E2C493" stroke-width="1.5"/>
<line y1="-0.75" x2="18" y2="-0.75" transform="matrix(-0.866025 0.5 0.5 0.866025 262.237 49.7457)" stroke="#E2C493" stroke-width="1.5"/>
<line y1="-0.75" x2="24" y2="-0.75" transform="matrix(-0.866025 0.5 0.5 0.866025 267.335 52.5758)" stroke="#E2C493" stroke-width="1.5"/>
<line y1="-0.75" x2="30" y2="-0.75" transform="matrix(-0.866025 0.5 0.5 0.866025 272.433 55.4059)" stroke="#E2C493" stroke-width="1.5"/>
<line y1="-0.75" x2="30" y2="-0.75" transform="matrix(0.866025 0.5 0.5 -0.866025 284.629 54.4059)" stroke="#E2C493" stroke-width="1.5"/>
<line y1="-0.75" x2="24" y2="-0.75" transform="matrix(0.866025 0.5 0.5 -0.866025 289.727 51.5758)" stroke="#E2C493" stroke-width="1.5"/>
<line y1="-0.75" x2="18" y2="-0.75" transform="matrix(0.866025 0.5 0.5 -0.866025 294.825 48.7457)" stroke="#E2C493" stroke-width="1.5"/>
<line y1="-0.75" x2="18" y2="-0.75" transform="matrix(-0.866025 0.5 0.5 0.866025 366.944 49.7457)" stroke="#E2C493" stroke-width="1.5"/>
<line y1="-0.75" x2="24" y2="-0.75" transform="matrix(-0.866025 0.5 0.5 0.866025 372.042 52.5758)" stroke="#E2C493" stroke-width="1.5"/>
<line y1="-0.75" x2="30" y2="-0.75" transform="matrix(-0.866025 0.5 0.5 0.866025 377.14 55.4059)" stroke="#E2C493" stroke-width="1.5"/>
<line y1="-0.75" x2="30" y2="-0.75" transform="matrix(0.866025 0.5 0.5 -0.866025 389.336 54.4059)" stroke="#E2C493" stroke-width="1.5"/>
<line y1="-0.75" x2="24" y2="-0.75" transform="matrix(0.866025 0.5 0.5 -0.866025 394.435 51.5758)" stroke="#E2C493" stroke-width="1.5"/>
<line y1="-0.75" x2="18" y2="-0.75" transform="matrix(0.866025 0.5 0.5 -0.866025 399.533 48.7457)" stroke="#E2C493" stroke-width="1.5"/>
<line x1="16.0116" y1="20.2457" x2="16.0116" y2="-15.7543" stroke="#E2C493" stroke-width="1.5"/>
<line x1="21.0116" y1="17.2457" x2="21.0116" y2="-12.7543" stroke="#E2C493" stroke-width="1.5"/>
<line x1="26.0116" y1="14.2457" x2="26.0116" y2="-9.75435" stroke="#E2C493" stroke-width="1.5"/>
<line x1="31.0116" y1="11.2457" x2="31.0116" y2="-6.75435" stroke="#E2C493" stroke-width="1.5"/>
<line x1="1.01163" y1="11.2457" x2="1.01163" y2="-6.75435" stroke="#E2C493" stroke-width="1.5"/>
<line x1="6.01163" y1="14.2457" x2="6.01163" y2="-9.75435" stroke="#E2C493" stroke-width="1.5"/>
<line x1="11.0116" y1="17.2457" x2="11.0116" y2="-12.7543" stroke="#E2C493" stroke-width="1.5"/>
<line x1="15.3866" y1="42.4135" x2="-15.7903" y2="24.4135" stroke="#E2C493" stroke-width="1.5"/>
<line x1="15.2886" y1="36.5834" x2="-10.6922" y2="21.5834" stroke="#E2C493" stroke-width="1.5"/>
<line x1="15.1905" y1="30.7532" x2="-5.59413" y2="18.7532" stroke="#E2C493" stroke-width="1.5"/>
<line x1="15.0924" y1="24.9231" x2="-0.49605" y2="15.9231" stroke="#E2C493" stroke-width="1.5"/>
<line x1="0.0924072" y1="50.9039" x2="-15.496" y2="41.9039" stroke="#E2C493" stroke-width="1.5"/>
<line x1="5.19048" y1="48.0737" x2="-15.5941" y2="36.0737" stroke="#E2C493" stroke-width="1.5"/>
<line x1="10.2886" y1="45.2436" x2="-15.6922" y2="30.2436" stroke="#E2C493" stroke-width="1.5"/>
<line x1="17.3866" y1="42.1145" x2="48.5635" y2="24.1145" stroke="#E2C493" stroke-width="1.5"/>
<line x1="22.4847" y1="44.9446" x2="48.4655" y2="29.9446" stroke="#E2C493" stroke-width="1.5"/>
<line x1="27.5828" y1="47.7747" x2="48.3674" y2="35.7747" stroke="#E2C493" stroke-width="1.5"/>
<line x1="32.6808" y1="50.6048" x2="48.2693" y2="41.6048" stroke="#E2C493" stroke-width="1.5"/>
<line x1="17.6808" y1="24.6241" x2="33.2693" y2="15.6241" stroke="#E2C493" stroke-width="1.5"/>
<line x1="17.5828" y1="30.4542" x2="38.3674" y2="18.4542" stroke="#E2C493" stroke-width="1.5"/>
<line x1="17.4847" y1="36.2843" x2="43.4655" y2="21.2843" stroke="#E2C493" stroke-width="1.5"/>
<line x1="120.719" y1="20.2457" x2="120.719" y2="-15.7543" stroke="#E2C493" stroke-width="1.5"/>
<line x1="125.719" y1="17.2457" x2="125.719" y2="-12.7543" stroke="#E2C493" stroke-width="1.5"/>
<line x1="130.719" y1="14.2457" x2="130.719" y2="-9.75435" stroke="#E2C493" stroke-width="1.5"/>
<line x1="135.719" y1="11.2457" x2="135.719" y2="-6.75435" stroke="#E2C493" stroke-width="1.5"/>
<line x1="105.719" y1="11.2457" x2="105.719" y2="-6.75435" stroke="#E2C493" stroke-width="1.5"/>
<line x1="110.719" y1="14.2457" x2="110.719" y2="-9.75435" stroke="#E2C493" stroke-width="1.5"/>
<line x1="115.719" y1="17.2457" x2="115.719" y2="-12.7543" stroke="#E2C493" stroke-width="1.5"/>
<line x1="120.094" y1="42.4135" x2="88.9174" y2="24.4135" stroke="#E2C493" stroke-width="1.5"/>
<line x1="119.996" y1="36.5834" x2="94.0154" y2="21.5834" stroke="#E2C493" stroke-width="1.5"/>
<line x1="119.898" y1="30.7532" x2="99.1135" y2="18.7532" stroke="#E2C493" stroke-width="1.5"/>
<line x1="119.8" y1="24.9231" x2="104.212" y2="15.9231" stroke="#E2C493" stroke-width="1.5"/>
<line x1="104.8" y1="50.9039" x2="89.2116" y2="41.9039" stroke="#E2C493" stroke-width="1.5"/>
<line x1="109.898" y1="48.0737" x2="89.1135" y2="36.0737" stroke="#E2C493" stroke-width="1.5"/>
<line x1="114.996" y1="45.2436" x2="89.0154" y2="30.2436" stroke="#E2C493" stroke-width="1.5"/>
<line x1="122.094" y1="42.1145" x2="153.271" y2="24.1145" stroke="#E2C493" stroke-width="1.5"/>
<line x1="127.192" y1="44.9446" x2="153.173" y2="29.9446" stroke="#E2C493" stroke-width="1.5"/>
<line x1="132.29" y1="47.7747" x2="153.075" y2="35.7747" stroke="#E2C493" stroke-width="1.5"/>
<line x1="137.388" y1="50.6048" x2="152.977" y2="41.6048" stroke="#E2C493" stroke-width="1.5"/>
<line x1="122.388" y1="24.6241" x2="137.977" y2="15.6241" stroke="#E2C493" stroke-width="1.5"/>
<line x1="122.29" y1="30.4542" x2="143.075" y2="18.4542" stroke="#E2C493" stroke-width="1.5"/>
<line x1="122.192" y1="36.2843" x2="148.173" y2="21.2843" stroke="#E2C493" stroke-width="1.5"/>
<line y1="-0.75" x2="36" y2="-0.75" transform="matrix(0 1 1 0 69.1154 19.7544)" stroke="#E2C493" stroke-width="1.5"/>
<line y1="-0.75" x2="30" y2="-0.75" transform="matrix(0 1 1 0 74.1154 22.7544)" stroke="#E2C493" stroke-width="1.5"/>
<line y1="-0.75" x2="24" y2="-0.75" transform="matrix(0 1 1 0 79.1154 25.7544)" stroke="#E2C493" stroke-width="1.5"/>
<line y1="-0.75" x2="18" y2="-0.75" transform="matrix(0 1 1 0 84.1154 28.7544)" stroke="#E2C493" stroke-width="1.5"/>
<line y1="-0.75" x2="18" y2="-0.75" transform="matrix(0 1 1 0 54.1154 28.7544)" stroke="#E2C493" stroke-width="1.5"/>
<line y1="-0.75" x2="24" y2="-0.75" transform="matrix(0 1 1 0 59.1154 25.7544)" stroke="#E2C493" stroke-width="1.5"/>
<line y1="-0.75" x2="30" y2="-0.75" transform="matrix(0 1 1 0 64.1154 22.7544)" stroke="#E2C493" stroke-width="1.5"/>
<line y1="-0.75" x2="36" y2="-0.75" transform="matrix(-0.866025 0.5 0.5 0.866025 68.1154 -1.76396)" stroke="#E2C493" stroke-width="1.5"/>
<line y1="-0.75" x2="30" y2="-0.75" transform="matrix(-0.866025 0.5 0.5 0.866025 68.0174 4.06616)" stroke="#E2C493" stroke-width="1.5"/>
<line y1="-0.75" x2="24" y2="-0.75" transform="matrix(-0.866025 0.5 0.5 0.866025 67.9193 9.89629)" stroke="#E2C493" stroke-width="1.5"/>
<line y1="-0.75" x2="18" y2="-0.75" transform="matrix(-0.866025 0.5 0.5 0.866025 67.8212 15.7264)" stroke="#E2C493" stroke-width="1.5"/>
<line y1="-0.75" x2="24" y2="-0.75" transform="matrix(-0.866025 0.5 0.5 0.866025 57.9193 -7.42422)" stroke="#E2C493" stroke-width="1.5"/>
<line y1="-0.75" x2="30" y2="-0.75" transform="matrix(-0.866025 0.5 0.5 0.866025 63.0174 -4.5941)" stroke="#E2C493" stroke-width="1.5"/>
<line y1="-0.75" x2="36" y2="-0.75" transform="matrix(0.866025 0.5 0.5 -0.866025 70.1154 -2.76396)" stroke="#E2C493" stroke-width="1.5"/>
<line y1="-0.75" x2="30" y2="-0.75" transform="matrix(0.866025 0.5 0.5 -0.866025 75.2135 -5.59409)" stroke="#E2C493" stroke-width="1.5"/>
<line y1="-0.75" x2="24" y2="-0.75" transform="matrix(0.866025 0.5 0.5 -0.866025 80.3116 -8.42421)" stroke="#E2C493" stroke-width="1.5"/>
<line y1="-0.75" x2="18" y2="-0.75" transform="matrix(0.866025 0.5 0.5 -0.866025 70.4097 14.7264)" stroke="#E2C493" stroke-width="1.5"/>
<line y1="-0.75" x2="24" y2="-0.75" transform="matrix(0.866025 0.5 0.5 -0.866025 70.3116 8.89629)" stroke="#E2C493" stroke-width="1.5"/>
<line y1="-0.75" x2="30" y2="-0.75" transform="matrix(0.866025 0.5 0.5 -0.866025 70.2135 3.06616)" stroke="#E2C493" stroke-width="1.5"/>
<line y1="-0.75" x2="36" y2="-0.75" transform="matrix(0 1 1 0 173.823 19.7544)" stroke="#E2C493" stroke-width="1.5"/>
<line y1="-0.75" x2="30" y2="-0.75" transform="matrix(0 1 1 0 178.823 22.7544)" stroke="#E2C493" stroke-width="1.5"/>
<line y1="-0.75" x2="24" y2="-0.75" transform="matrix(0 1 1 0 183.823 25.7544)" stroke="#E2C493" stroke-width="1.5"/>
<line y1="-0.75" x2="18" y2="-0.75" transform="matrix(0 1 1 0 188.823 28.7544)" stroke="#E2C493" stroke-width="1.5"/>
<line y1="-0.75" x2="18" y2="-0.75" transform="matrix(0 1 1 0 158.823 28.7544)" stroke="#E2C493" stroke-width="1.5"/>
<line y1="-0.75" x2="24" y2="-0.75" transform="matrix(0 1 1 0 163.823 25.7544)" stroke="#E2C493" stroke-width="1.5"/>
<line y1="-0.75" x2="30" y2="-0.75" transform="matrix(0 1 1 0 168.823 22.7544)" stroke="#E2C493" stroke-width="1.5"/>
<line y1="-0.75" x2="36" y2="-0.75" transform="matrix(-0.866025 0.5 0.5 0.866025 172.823 -1.76396)" stroke="#E2C493" stroke-width="1.5"/>
<line y1="-0.75" x2="30" y2="-0.75" transform="matrix(-0.866025 0.5 0.5 0.866025 172.725 4.06616)" stroke="#E2C493" stroke-width="1.5"/>
<line y1="-0.75" x2="24" y2="-0.75" transform="matrix(-0.866025 0.5 0.5 0.866025 172.627 9.89629)" stroke="#E2C493" stroke-width="1.5"/>
<line y1="-0.75" x2="18" y2="-0.75" transform="matrix(-0.866025 0.5 0.5 0.866025 172.529 15.7264)" stroke="#E2C493" stroke-width="1.5"/>
<line y1="-0.75" x2="24" y2="-0.75" transform="matrix(-0.866025 0.5 0.5 0.866025 162.627 -7.42422)" stroke="#E2C493" stroke-width="1.5"/>
<line y1="-0.75" x2="30" y2="-0.75" transform="matrix(-0.866025 0.5 0.5 0.866025 167.725 -4.5941)" stroke="#E2C493" stroke-width="1.5"/>
<line y1="-0.75" x2="36" y2="-0.75" transform="matrix(0.866025 0.5 0.5 -0.866025 174.823 -2.76396)" stroke="#E2C493" stroke-width="1.5"/>
<line y1="-0.75" x2="30" y2="-0.75" transform="matrix(0.866025 0.5 0.5 -0.866025 179.921 -5.59409)" stroke="#E2C493" stroke-width="1.5"/>
<line y1="-0.75" x2="24" y2="-0.75" transform="matrix(0.866025 0.5 0.5 -0.866025 185.019 -8.42421)" stroke="#E2C493" stroke-width="1.5"/>
<line y1="-0.75" x2="18" y2="-0.75" transform="matrix(0.866025 0.5 0.5 -0.866025 175.117 14.7264)" stroke="#E2C493" stroke-width="1.5"/>
<line y1="-0.75" x2="24" y2="-0.75" transform="matrix(0.866025 0.5 0.5 -0.866025 175.019 8.89629)" stroke="#E2C493" stroke-width="1.5"/>
<line y1="-0.75" x2="30" y2="-0.75" transform="matrix(0.866025 0.5 0.5 -0.866025 174.921 3.06616)" stroke="#E2C493" stroke-width="1.5"/>
<line x1="225.427" y1="20.2457" x2="225.427" y2="-15.7543" stroke="#E2C493" stroke-width="1.5"/>
<line x1="230.427" y1="17.2457" x2="230.427" y2="-12.7543" stroke="#E2C493" stroke-width="1.5"/>
<line x1="235.427" y1="14.2457" x2="235.427" y2="-9.75435" stroke="#E2C493" stroke-width="1.5"/>
<line x1="240.427" y1="11.2457" x2="240.427" y2="-6.75435" stroke="#E2C493" stroke-width="1.5"/>
<line x1="210.427" y1="11.2457" x2="210.427" y2="-6.75435" stroke="#E2C493" stroke-width="1.5"/>
<line x1="215.427" y1="14.2457" x2="215.427" y2="-9.75435" stroke="#E2C493" stroke-width="1.5"/>
<line x1="220.427" y1="17.2457" x2="220.427" y2="-12.7543" stroke="#E2C493" stroke-width="1.5"/>
<line x1="224.802" y1="42.4135" x2="193.625" y2="24.4135" stroke="#E2C493" stroke-width="1.5"/>
<line x1="224.704" y1="36.5834" x2="198.723" y2="21.5834" stroke="#E2C493" stroke-width="1.5"/>
<line x1="224.606" y1="30.7532" x2="203.821" y2="18.7532" stroke="#E2C493" stroke-width="1.5"/>
<line x1="224.508" y1="24.9231" x2="208.919" y2="15.9231" stroke="#E2C493" stroke-width="1.5"/>
<line x1="209.508" y1="50.9039" x2="193.919" y2="41.9039" stroke="#E2C493" stroke-width="1.5"/>
<line x1="214.606" y1="48.0737" x2="193.821" y2="36.0737" stroke="#E2C493" stroke-width="1.5"/>
<line x1="219.704" y1="45.2436" x2="193.723" y2="30.2436" stroke="#E2C493" stroke-width="1.5"/>
<line x1="226.802" y1="42.1145" x2="257.979" y2="24.1145" stroke="#E2C493" stroke-width="1.5"/>
<line x1="231.9" y1="44.9446" x2="257.881" y2="29.9446" stroke="#E2C493" stroke-width="1.5"/>
<line x1="236.998" y1="47.7747" x2="257.783" y2="35.7747" stroke="#E2C493" stroke-width="1.5"/>
<line x1="242.096" y1="50.6048" x2="257.685" y2="41.6048" stroke="#E2C493" stroke-width="1.5"/>
<line x1="227.096" y1="24.6241" x2="242.685" y2="15.6241" stroke="#E2C493" stroke-width="1.5"/>
<line x1="226.998" y1="30.4542" x2="247.783" y2="18.4542" stroke="#E2C493" stroke-width="1.5"/>
<line x1="226.9" y1="36.2843" x2="252.881" y2="21.2843" stroke="#E2C493" stroke-width="1.5"/>
<line x1="330.135" y1="20.2457" x2="330.135" y2="-15.7543" stroke="#E2C493" stroke-width="1.5"/>
<line x1="335.135" y1="17.2457" x2="335.135" y2="-12.7543" stroke="#E2C493" stroke-width="1.5"/>
<line x1="340.135" y1="14.2457" x2="340.135" y2="-9.75435" stroke="#E2C493" stroke-width="1.5"/>
<line x1="345.135" y1="11.2457" x2="345.135" y2="-6.75435" stroke="#E2C493" stroke-width="1.5"/>
<line x1="315.135" y1="11.2457" x2="315.135" y2="-6.75435" stroke="#E2C493" stroke-width="1.5"/>
<line x1="320.135" y1="14.2457" x2="320.135" y2="-9.75435" stroke="#E2C493" stroke-width="1.5"/>
<line x1="325.135" y1="17.2457" x2="325.135" y2="-12.7543" stroke="#E2C493" stroke-width="1.5"/>
<line x1="329.51" y1="42.4135" x2="298.333" y2="24.4135" stroke="#E2C493" stroke-width="1.5"/>
<line x1="329.411" y1="36.5834" x2="303.431" y2="21.5834" stroke="#E2C493" stroke-width="1.5"/>
<line x1="329.313" y1="30.7532" x2="308.529" y2="18.7532" stroke="#E2C493" stroke-width="1.5"/>
<line x1="329.215" y1="24.9231" x2="313.627" y2="15.9231" stroke="#E2C493" stroke-width="1.5"/>
<line x1="314.215" y1="50.9039" x2="298.627" y2="41.9039" stroke="#E2C493" stroke-width="1.5"/>
<line x1="319.313" y1="48.0737" x2="298.529" y2="36.0737" stroke="#E2C493" stroke-width="1.5"/>
<line x1="324.411" y1="45.2436" x2="298.431" y2="30.2436" stroke="#E2C493" stroke-width="1.5"/>
<line x1="331.51" y1="42.1145" x2="362.686" y2="24.1145" stroke="#E2C493" stroke-width="1.5"/>
<line x1="336.608" y1="44.9446" x2="362.588" y2="29.9446" stroke="#E2C493" stroke-width="1.5"/>
<line x1="341.706" y1="47.7747" x2="362.49" y2="35.7747" stroke="#E2C493" stroke-width="1.5"/>
<line x1="346.804" y1="50.6048" x2="362.392" y2="41.6048" stroke="#E2C493" stroke-width="1.5"/>
<line x1="331.804" y1="24.6241" x2="347.392" y2="15.6241" stroke="#E2C493" stroke-width="1.5"/>
<line x1="331.706" y1="30.4542" x2="352.49" y2="18.4542" stroke="#E2C493" stroke-width="1.5"/>
<line x1="331.608" y1="36.2843" x2="357.588" y2="21.2843" stroke="#E2C493" stroke-width="1.5"/>
<line y1="-0.75" x2="36" y2="-0.75" transform="matrix(0 1 1 0 278.531 19.7544)" stroke="#E2C493" stroke-width="1.5"/>
<line y1="-0.75" x2="30" y2="-0.75" transform="matrix(0 1 1 0 283.531 22.7544)" stroke="#E2C493" stroke-width="1.5"/>
<line y1="-0.75" x2="24" y2="-0.75" transform="matrix(0 1 1 0 288.531 25.7544)" stroke="#E2C493" stroke-width="1.5"/>
<line y1="-0.75" x2="18" y2="-0.75" transform="matrix(0 1 1 0 293.531 28.7544)" stroke="#E2C493" stroke-width="1.5"/>
<line y1="-0.75" x2="18" y2="-0.75" transform="matrix(0 1 1 0 263.531 28.7544)" stroke="#E2C493" stroke-width="1.5"/>
<line y1="-0.75" x2="24" y2="-0.75" transform="matrix(0 1 1 0 268.531 25.7544)" stroke="#E2C493" stroke-width="1.5"/>
<line y1="-0.75" x2="30" y2="-0.75" transform="matrix(0 1 1 0 273.531 22.7544)" stroke="#E2C493" stroke-width="1.5"/>
<line y1="-0.75" x2="36" y2="-0.75" transform="matrix(-0.866025 0.5 0.5 0.866025 277.531 -1.76396)" stroke="#E2C493" stroke-width="1.5"/>
<line y1="-0.75" x2="30" y2="-0.75" transform="matrix(-0.866025 0.5 0.5 0.866025 277.433 4.06616)" stroke="#E2C493" stroke-width="1.5"/>
<line y1="-0.75" x2="24" y2="-0.75" transform="matrix(-0.866025 0.5 0.5 0.866025 277.335 9.89629)" stroke="#E2C493" stroke-width="1.5"/>
<line y1="-0.75" x2="18" y2="-0.75" transform="matrix(-0.866025 0.5 0.5 0.866025 277.237 15.7264)" stroke="#E2C493" stroke-width="1.5"/>
<line y1="-0.75" x2="24" y2="-0.75" transform="matrix(-0.866025 0.5 0.5 0.866025 267.335 -7.42422)" stroke="#E2C493" stroke-width="1.5"/>
<line y1="-0.75" x2="30" y2="-0.75" transform="matrix(-0.866025 0.5 0.5 0.866025 272.433 -4.5941)" stroke="#E2C493" stroke-width="1.5"/>
<line y1="-0.75" x2="36" y2="-0.75" transform="matrix(0.866025 0.5 0.5 -0.866025 279.531 -2.76396)" stroke="#E2C493" stroke-width="1.5"/>
<line y1="-0.75" x2="30" y2="-0.75" transform="matrix(0.866025 0.5 0.5 -0.866025 284.629 -5.59409)" stroke="#E2C493" stroke-width="1.5"/>
<line y1="-0.75" x2="24" y2="-0.75" transform="matrix(0.866025 0.5 0.5 -0.866025 289.727 -8.42421)" stroke="#E2C493" stroke-width="1.5"/>
<line y1="-0.75" x2="18" y2="-0.75" transform="matrix(0.866025 0.5 0.5 -0.866025 279.825 14.7264)" stroke="#E2C493" stroke-width="1.5"/>
<line y1="-0.75" x2="24" y2="-0.75" transform="matrix(0.866025 0.5 0.5 -0.866025 279.727 8.89629)" stroke="#E2C493" stroke-width="1.5"/>
<line y1="-0.75" x2="30" y2="-0.75" transform="matrix(0.866025 0.5 0.5 -0.866025 279.629 3.06616)" stroke="#E2C493" stroke-width="1.5"/>
<line y1="-0.75" x2="36" y2="-0.75" transform="matrix(0 1 1 0 383.238 19.7544)" stroke="#E2C493" stroke-width="1.5"/>
<line y1="-0.75" x2="30" y2="-0.75" transform="matrix(0 1 1 0 388.238 22.7544)" stroke="#E2C493" stroke-width="1.5"/>
<line y1="-0.75" x2="24" y2="-0.75" transform="matrix(0 1 1 0 393.238 25.7544)" stroke="#E2C493" stroke-width="1.5"/>
<line y1="-0.75" x2="18" y2="-0.75" transform="matrix(0 1 1 0 398.238 28.7544)" stroke="#E2C493" stroke-width="1.5"/>
<line y1="-0.75" x2="18" y2="-0.75" transform="matrix(0 1 1 0 368.238 28.7544)" stroke="#E2C493" stroke-width="1.5"/>
<line y1="-0.75" x2="24" y2="-0.75" transform="matrix(0 1 1 0 373.238 25.7544)" stroke="#E2C493" stroke-width="1.5"/>
<line y1="-0.75" x2="30" y2="-0.75" transform="matrix(0 1 1 0 378.238 22.7544)" stroke="#E2C493" stroke-width="1.5"/>
<line y1="-0.75" x2="36" y2="-0.75" transform="matrix(-0.866025 0.5 0.5 0.866025 382.238 -1.76396)" stroke="#E2C493" stroke-width="1.5"/>
<line y1="-0.75" x2="30" y2="-0.75" transform="matrix(-0.866025 0.5 0.5 0.866025 382.14 4.06616)" stroke="#E2C493" stroke-width="1.5"/>
<line y1="-0.75" x2="24" y2="-0.75" transform="matrix(-0.866025 0.5 0.5 0.866025 382.042 9.89629)" stroke="#E2C493" stroke-width="1.5"/>
<line y1="-0.75" x2="18" y2="-0.75" transform="matrix(-0.866025 0.5 0.5 0.866025 381.944 15.7264)" stroke="#E2C493" stroke-width="1.5"/>
<line y1="-0.75" x2="24" y2="-0.75" transform="matrix(-0.866025 0.5 0.5 0.866025 372.042 -7.42422)" stroke="#E2C493" stroke-width="1.5"/>
<line y1="-0.75" x2="30" y2="-0.75" transform="matrix(-0.866025 0.5 0.5 0.866025 377.14 -4.5941)" stroke="#E2C493" stroke-width="1.5"/>
<line y1="-0.75" x2="36" y2="-0.75" transform="matrix(0.866025 0.5 0.5 -0.866025 384.238 -2.76396)" stroke="#E2C493" stroke-width="1.5"/>
<line y1="-0.75" x2="30" y2="-0.75" transform="matrix(0.866025 0.5 0.5 -0.866025 389.336 -5.59409)" stroke="#E2C493" stroke-width="1.5"/>
<line y1="-0.75" x2="24" y2="-0.75" transform="matrix(0.866025 0.5 0.5 -0.866025 394.435 -8.42421)" stroke="#E2C493" stroke-width="1.5"/>
<line y1="-0.75" x2="18" y2="-0.75" transform="matrix(0.866025 0.5 0.5 -0.866025 384.533 14.7264)" stroke="#E2C493" stroke-width="1.5"/>
<line y1="-0.75" x2="24" y2="-0.75" transform="matrix(0.866025 0.5 0.5 -0.866025 384.435 8.89629)" stroke="#E2C493" stroke-width="1.5"/>
<line y1="-0.75" x2="30" y2="-0.75" transform="matrix(0.866025 0.5 0.5 -0.866025 384.336 3.06616)" stroke="#E2C493" stroke-width="1.5"/>
</g>
<defs>
<clipPath id="clip0_1_505">
<rect width="445.831" height="56" fill="white" transform="translate(-22.9153)"/>
</clipPath>
</defs>
</svg>
