<svg width="30" height="26" viewBox="0 0 30 26" fill="none" xmlns="http://www.w3.org/2000/svg">
<path d="M2.06066 12L5 9.06066L7.93934 12L5 14.9393L2.06066 12Z" stroke="#364F56" stroke-width="1.5"/>
<path d="M10.0607 12L13 9.06066L15.9393 12L13 14.9393L10.0607 12Z" stroke="#364F56" stroke-width="1.5"/>
<path d="M10.0607 4L13 1.06066L15.9393 4L13 6.93934L10.0607 4Z" stroke="#364F56" stroke-width="1.5"/>
<path d="M18.0607 12L21 9.06066L23.9393 12L21 14.9393L18.0607 12Z" stroke="#364F56" stroke-width="1.5"/>
<path d="M0.96875 19.667H2.86719V19.8867H2.65625C2.48047 19.8867 2.36621 19.9004 2.31348 19.9277C2.26074 19.9551 2.23438 19.9932 2.23438 20.042C2.23438 20.0928 2.24805 20.1387 2.27539 20.1797L3.37695 21.8877L4.16797 20.4316C4.20312 20.3672 4.2207 20.2969 4.2207 20.2207C4.2207 20.1191 4.1875 20.0381 4.12109 19.9775C4.05469 19.917 3.95996 19.8867 3.83691 19.8867H3.63477V19.667H5.28711V19.8867C5.09766 19.8867 4.94824 19.9199 4.83887 19.9863C4.72949 20.0527 4.62402 20.1777 4.52246 20.3613L3.52344 22.1924V23.5635C3.52344 23.6357 3.54395 23.6875 3.58496 23.7188C3.6416 23.7598 3.72559 23.7803 3.83691 23.7803H4.20898V24H2.21973V23.7803H2.6123C2.71777 23.7803 2.79395 23.7617 2.84082 23.7246C2.8877 23.6855 2.91113 23.6318 2.91113 23.5635V22.2305L1.56641 20.1357C1.50781 20.0459 1.43945 19.9834 1.36133 19.9482C1.2832 19.9111 1.15234 19.8906 0.96875 19.8867V19.667ZM6.05176 21.1729C6.4209 21.1729 6.73047 21.3066 6.98047 21.5742C7.23242 21.8398 7.3584 22.1904 7.3584 22.626C7.3584 22.9268 7.30176 23.1836 7.18848 23.3965C7.07715 23.6074 6.91699 23.7744 6.70801 23.8975C6.50098 24.0205 6.27734 24.082 6.03711 24.082C5.68164 24.082 5.37988 23.9473 5.13184 23.6777C4.88574 23.4082 4.7627 23.0586 4.7627 22.6289C4.7627 22.1973 4.88672 21.8467 5.13477 21.5771C5.38281 21.3076 5.68848 21.1729 6.05176 21.1729ZM6.05176 21.3809C5.83301 21.3809 5.65332 21.4805 5.5127 21.6797C5.37207 21.877 5.30176 22.1895 5.30176 22.6172C5.30176 23.0527 5.37109 23.3711 5.50977 23.5723C5.65039 23.7734 5.83105 23.874 6.05176 23.874C6.28027 23.874 6.46484 23.7734 6.60547 23.5723C6.74805 23.3711 6.81934 23.042 6.81934 22.585C6.81934 22.1611 6.74902 21.8545 6.6084 21.665C6.46973 21.4756 6.28418 21.3809 6.05176 21.3809ZM8.69727 21.2051V23.0244C8.69727 23.2471 8.75293 23.4189 8.86426 23.54C8.97754 23.6611 9.12305 23.7217 9.30078 23.7217C9.51953 23.7217 9.70508 23.6338 9.85742 23.458C10.0117 23.2803 10.0889 23.0586 10.0889 22.793V21.7646C10.0889 21.6709 10.0547 21.5986 9.98633 21.5479C9.91992 21.4951 9.79102 21.4658 9.59961 21.46V21.2549L10.5635 21.2051V23.458C10.5635 23.5615 10.5928 23.6416 10.6514 23.6982C10.71 23.7529 10.792 23.7803 10.8975 23.7803H11.0703V23.9766L10.1475 24L10.0889 23.458C9.9248 23.6514 9.75977 23.7969 9.59375 23.8945C9.42773 23.9922 9.25977 24.041 9.08984 24.041C8.8418 24.041 8.63379 23.958 8.46582 23.792C8.2959 23.6279 8.21094 23.3496 8.21094 22.957V21.7646C8.21094 21.6592 8.16895 21.5791 8.08496 21.5244C8.02637 21.4854 7.90625 21.4639 7.72461 21.46V21.2549L8.69727 21.2051ZM11.3809 21.2549L12.3682 21.2051V22.3154C12.4736 21.9502 12.6006 21.6738 12.749 21.4863C12.8975 21.2988 13.0811 21.2051 13.2998 21.2051C13.4482 21.2051 13.5664 21.251 13.6543 21.3428C13.7441 21.4326 13.7891 21.5537 13.7891 21.7061C13.7891 21.8291 13.7588 21.9248 13.6982 21.9932C13.6396 22.0615 13.5654 22.0957 13.4756 22.0957C13.3877 22.0957 13.3164 22.0664 13.2617 22.0078C13.209 21.9492 13.1826 21.8701 13.1826 21.7705C13.1826 21.7061 13.1982 21.6455 13.2295 21.5889C13.2588 21.5381 13.2734 21.5078 13.2734 21.498C13.2734 21.4688 13.2549 21.4541 13.2178 21.4541C13.1377 21.4541 13.0469 21.501 12.9453 21.5947C12.8047 21.7256 12.6963 21.9053 12.6201 22.1338C12.5029 22.4893 12.4443 22.7734 12.4443 22.9863V23.5752C12.4443 23.6416 12.4678 23.6924 12.5146 23.7275C12.5615 23.7627 12.6416 23.7803 12.7549 23.7803H13.1035V24H11.3984V23.7803H11.6709C11.7627 23.7803 11.832 23.7627 11.8789 23.7275C11.9258 23.6904 11.9492 23.6465 11.9492 23.5957V21.8467C11.9492 21.7139 11.9209 21.6172 11.8643 21.5566C11.8076 21.4941 11.7266 21.4629 11.6211 21.4629H11.3809V21.2549ZM15.752 19.667H17.7588V19.8867H17.2783C17.2021 19.8867 17.1455 19.9072 17.1084 19.9482C17.0732 19.9873 17.0557 20.0498 17.0557 20.1357V23.5547C17.0557 23.6367 17.0781 23.6953 17.123 23.7305C17.1699 23.7637 17.2627 23.7803 17.4014 23.7803H18.0107C18.335 23.7803 18.5996 23.6729 18.8047 23.458C19.0117 23.2412 19.1621 22.8662 19.2559 22.333H19.4609L19.3613 24H15.752V23.7803H16.1064C16.2275 23.7803 16.3125 23.7578 16.3613 23.7129C16.4102 23.666 16.4346 23.5918 16.4346 23.4902V20.1064C16.4346 20.0342 16.4141 19.9795 16.373 19.9424C16.332 19.9053 16.2715 19.8867 16.1914 19.8867H15.752V19.667ZM21.0576 21.1729C21.4268 21.1729 21.7363 21.3066 21.9863 21.5742C22.2383 21.8398 22.3643 22.1904 22.3643 22.626C22.3643 22.9268 22.3076 23.1836 22.1943 23.3965C22.083 23.6074 21.9229 23.7744 21.7139 23.8975C21.5068 24.0205 21.2832 24.082 21.043 24.082C20.6875 24.082 20.3857 23.9473 20.1377 23.6777C19.8916 23.4082 19.7686 23.0586 19.7686 22.6289C19.7686 22.1973 19.8926 21.8467 20.1406 21.5771C20.3887 21.3076 20.6943 21.1729 21.0576 21.1729ZM21.0576 21.3809C20.8389 21.3809 20.6592 21.4805 20.5186 21.6797C20.3779 21.877 20.3076 22.1895 20.3076 22.6172C20.3076 23.0527 20.377 23.3711 20.5156 23.5723C20.6562 23.7734 20.8369 23.874 21.0576 23.874C21.2861 23.874 21.4707 23.7734 21.6113 23.5723C21.7539 23.3711 21.8252 23.042 21.8252 22.585C21.8252 22.1611 21.7549 21.8545 21.6143 21.665C21.4756 21.4756 21.29 21.3809 21.0576 21.3809ZM24.8662 21.4102C25.0615 21.2129 25.2412 21.1143 25.4053 21.1143C25.5029 21.1143 25.584 21.1455 25.6484 21.208C25.7129 21.2705 25.7451 21.3467 25.7451 21.4365C25.7451 21.5088 25.7227 21.5693 25.6777 21.6182C25.6348 21.665 25.584 21.6885 25.5254 21.6885C25.4141 21.6885 25.3389 21.6201 25.2998 21.4834C25.2842 21.4248 25.2578 21.3955 25.2207 21.3955C25.1543 21.3955 25.082 21.4395 25.0039 21.5273C25.0879 21.6426 25.1455 21.7432 25.1768 21.8291C25.208 21.9131 25.2236 22.0039 25.2236 22.1016C25.2236 22.2715 25.1826 22.4219 25.1006 22.5527C25.0186 22.6816 24.8818 22.7959 24.6904 22.8955C24.501 22.9951 24.3193 23.0449 24.1455 23.0449H23.8262C23.5996 23.0449 23.4492 23.0684 23.375 23.1152C23.3008 23.1641 23.2637 23.2354 23.2637 23.3291C23.2637 23.4053 23.2939 23.4639 23.3545 23.5049C23.415 23.5459 23.5293 23.5664 23.6973 23.5664L24.4209 23.5518C24.7861 23.5518 25.0488 23.6133 25.209 23.7363C25.3711 23.8574 25.4521 24.0244 25.4521 24.2373C25.4521 24.4717 25.3604 24.6689 25.1768 24.8291C24.9209 25.0557 24.5391 25.1689 24.0312 25.1689C23.6113 25.1689 23.2998 25.0918 23.0967 24.9375C22.9365 24.8164 22.8564 24.6807 22.8564 24.5303C22.8564 24.415 22.9072 24.3096 23.0088 24.2139C23.1123 24.1182 23.2852 24.0469 23.5273 24C23.334 23.9531 23.1885 23.8848 23.0908 23.7949C22.9932 23.7031 22.9443 23.5898 22.9443 23.4551C22.9443 23.3301 22.9834 23.2217 23.0615 23.1299C23.1416 23.0361 23.2793 22.9561 23.4746 22.8896C23.3086 22.7979 23.1836 22.6875 23.0996 22.5586C23.0156 22.4277 22.9736 22.2783 22.9736 22.1104C22.9736 21.8447 23.0781 21.6221 23.2871 21.4424C23.4961 21.2627 23.7676 21.1729 24.1016 21.1729C24.2383 21.1729 24.3701 21.1924 24.4971 21.2314C24.624 21.2705 24.7471 21.3301 24.8662 21.4102ZM24.0957 21.3604C23.9219 21.3604 23.7783 21.4248 23.665 21.5537C23.5518 21.6807 23.4951 21.8594 23.4951 22.0898C23.4951 22.3359 23.5518 22.5273 23.665 22.6641C23.7783 22.7988 23.9229 22.8662 24.0986 22.8662C24.2744 22.8662 24.418 22.8008 24.5293 22.6699C24.6426 22.5371 24.6992 22.3477 24.6992 22.1016C24.6992 21.873 24.6416 21.6924 24.5264 21.5596C24.4131 21.4268 24.2695 21.3604 24.0957 21.3604ZM24.2686 24.0029C23.9092 24.0029 23.6523 24.0527 23.498 24.1523C23.3457 24.252 23.2695 24.3721 23.2695 24.5127C23.2695 24.6455 23.3271 24.75 23.4424 24.8262C23.5947 24.9277 23.8115 24.9785 24.0928 24.9785C24.4287 24.9785 24.6816 24.9229 24.8516 24.8115C25.0215 24.7002 25.1064 24.5762 25.1064 24.4395C25.1064 24.3594 25.0801 24.2842 25.0273 24.2139C24.9746 24.1455 24.8906 24.0928 24.7754 24.0557C24.6602 24.0205 24.4912 24.0029 24.2686 24.0029ZM27.2803 21.1729C27.6494 21.1729 27.959 21.3066 28.209 21.5742C28.4609 21.8398 28.5869 22.1904 28.5869 22.626C28.5869 22.9268 28.5303 23.1836 28.417 23.3965C28.3057 23.6074 28.1455 23.7744 27.9365 23.8975C27.7295 24.0205 27.5059 24.082 27.2656 24.082C26.9102 24.082 26.6084 23.9473 26.3604 23.6777C26.1143 23.4082 25.9912 23.0586 25.9912 22.6289C25.9912 22.1973 26.1152 21.8467 26.3633 21.5771C26.6113 21.3076 26.917 21.1729 27.2803 21.1729ZM27.2803 21.3809C27.0615 21.3809 26.8818 21.4805 26.7412 21.6797C26.6006 21.877 26.5303 22.1895 26.5303 22.6172C26.5303 23.0527 26.5996 23.3711 26.7383 23.5723C26.8789 23.7734 27.0596 23.874 27.2803 23.874C27.5088 23.874 27.6934 23.7734 27.834 23.5723C27.9766 23.3711 28.0479 23.042 28.0479 22.585C28.0479 22.1611 27.9775 21.8545 27.8369 21.665C27.6982 21.4756 27.5127 21.3809 27.2803 21.3809Z" fill="#C19B44"/>
</svg>
