<svg width="400" height="64" viewBox="0 0 400 64" fill="none" xmlns="http://www.w3.org/2000/svg">
<g opacity="0.3">
<circle cx="4.75" cy="0.75" r="0.25" fill="#C4C4C4"/>
<circle cx="11.25" cy="0.75" r="0.25" fill="#C4C4C4"/>
<circle cx="17.75" cy="0.75" r="0.25" fill="#C4C4C4"/>
<circle cx="24.25" cy="0.75" r="0.25" fill="#C4C4C4"/>
<circle cx="30.75" cy="0.75" r="0.25" fill="#C4C4C4"/>
<circle cx="37.25" cy="0.75" r="0.25" fill="#C4C4C4"/>
<circle cx="43.75" cy="0.75" r="0.25" fill="#C4C4C4"/>
<circle cx="50.25" cy="0.75" r="0.25" fill="#C4C4C4"/>
<circle cx="56.75" cy="0.75" r="0.25" fill="#C4C4C4"/>
<circle cx="63.25" cy="0.75" r="0.25" fill="#C4C4C4"/>
<circle cx="69.75" cy="0.75" r="0.25" fill="#C4C4C4"/>
<circle cx="76.25" cy="0.75" r="0.25" fill="#C4C4C4"/>
<circle cx="82.75" cy="0.75" r="0.25" fill="#C4C4C4"/>
<circle cx="89.25" cy="0.75" r="0.25" fill="#C4C4C4"/>
<circle cx="95.75" cy="0.75" r="0.25" fill="#C4C4C4"/>
<circle cx="102.25" cy="0.75" r="0.25" fill="#C4C4C4"/>
<circle cx="108.75" cy="0.75" r="0.25" fill="#C4C4C4"/>
<circle cx="115.25" cy="0.75" r="0.25" fill="#C4C4C4"/>
<circle cx="121.75" cy="0.75" r="0.25" fill="#C4C4C4"/>
<circle cx="128.25" cy="0.75" r="0.25" fill="#C4C4C4"/>
<circle cx="134.75" cy="0.75" r="0.25" fill="#C4C4C4"/>
<circle cx="141.25" cy="0.75" r="0.25" fill="#C4C4C4"/>
<circle cx="147.75" cy="0.75" r="0.25" fill="#C4C4C4"/>
<circle cx="154.25" cy="0.75" r="0.25" fill="#C4C4C4"/>
<circle cx="160.75" cy="0.75" r="0.25" fill="#C4C4C4"/>
<circle cx="167.25" cy="0.75" r="0.25" fill="#C4C4C4"/>
<circle cx="173.75" cy="0.75" r="0.25" fill="#C4C4C4"/>
<circle cx="180.25" cy="0.75" r="0.25" fill="#C4C4C4"/>
<circle cx="186.75" cy="0.75" r="0.25" fill="#C4C4C4"/>
<circle cx="193.25" cy="0.75" r="0.25" fill="#C4C4C4"/>
<circle cx="199.75" cy="0.75" r="0.25" fill="#C4C4C4"/>
<circle cx="206.25" cy="0.75" r="0.25" fill="#C4C4C4"/>
<circle cx="212.75" cy="0.75" r="0.25" fill="#C4C4C4"/>
<circle cx="219.25" cy="0.75" r="0.25" fill="#C4C4C4"/>
<circle cx="225.75" cy="0.75" r="0.25" fill="#C4C4C4"/>
<circle cx="232.25" cy="0.75" r="0.25" fill="#C4C4C4"/>
<circle cx="238.75" cy="0.75" r="0.25" fill="#C4C4C4"/>
<circle cx="245.25" cy="0.75" r="0.25" fill="#C4C4C4"/>
<circle cx="251.75" cy="0.75" r="0.25" fill="#C4C4C4"/>
<circle cx="258.25" cy="0.75" r="0.25" fill="#C4C4C4"/>
<circle cx="264.75" cy="0.75" r="0.25" fill="#C4C4C4"/>
<circle cx="271.25" cy="0.75" r="0.25" fill="#C4C4C4"/>
<circle cx="277.75" cy="0.75" r="0.25" fill="#C4C4C4"/>
<circle cx="284.25" cy="0.75" r="0.25" fill="#C4C4C4"/>
<circle cx="290.75" cy="0.75" r="0.25" fill="#C4C4C4"/>
<circle cx="297.25" cy="0.75" r="0.25" fill="#C4C4C4"/>
<circle cx="303.75" cy="0.75" r="0.25" fill="#C4C4C4"/>
<circle cx="310.25" cy="0.75" r="0.25" fill="#C4C4C4"/>
<circle cx="316.75" cy="0.75" r="0.25" fill="#C4C4C4"/>
<circle cx="323.25" cy="0.75" r="0.25" fill="#C4C4C4"/>
<circle cx="329.75" cy="0.75" r="0.25" fill="#C4C4C4"/>
<circle cx="336.25" cy="0.75" r="0.25" fill="#C4C4C4"/>
<circle cx="342.75" cy="0.75" r="0.25" fill="#C4C4C4"/>
<circle cx="349.25" cy="0.75" r="0.25" fill="#C4C4C4"/>
<circle cx="355.75" cy="0.75" r="0.25" fill="#C4C4C4"/>
<circle cx="362.25" cy="0.75" r="0.25" fill="#C4C4C4"/>
<circle cx="368.75" cy="0.75" r="0.25" fill="#C4C4C4"/>
<circle cx="375.25" cy="0.75" r="0.25" fill="#C4C4C4"/>
<circle cx="381.75" cy="0.75" r="0.25" fill="#C4C4C4"/>
<circle cx="388.25" cy="0.75" r="0.25" fill="#C4C4C4"/>
<circle cx="394.75" cy="0.75" r="0.25" fill="#C4C4C4"/>
</g>
<g opacity="0.3">
<circle cx="5.5" cy="5.5" r="0.5" fill="#C4C4C4"/>
<circle cx="12.5" cy="5.5" r="0.5" fill="#C4C4C4"/>
<circle cx="19.5" cy="5.5" r="0.5" fill="#C4C4C4"/>
<circle cx="26.5" cy="5.5" r="0.5" fill="#C4C4C4"/>
<circle cx="33.5" cy="5.5" r="0.5" fill="#C4C4C4"/>
<circle cx="40.5" cy="5.5" r="0.5" fill="#C4C4C4"/>
<circle cx="47.5" cy="5.5" r="0.5" fill="#C4C4C4"/>
<circle cx="54.5" cy="5.5" r="0.5" fill="#C4C4C4"/>
<circle cx="61.5" cy="5.5" r="0.5" fill="#C4C4C4"/>
<circle cx="68.5" cy="5.5" r="0.5" fill="#C4C4C4"/>
<circle cx="75.5" cy="5.5" r="0.5" fill="#C4C4C4"/>
<circle cx="82.5" cy="5.5" r="0.5" fill="#C4C4C4"/>
<circle cx="89.5" cy="5.5" r="0.5" fill="#C4C4C4"/>
<circle cx="96.5" cy="5.5" r="0.5" fill="#C4C4C4"/>
<circle cx="103.5" cy="5.5" r="0.5" fill="#C4C4C4"/>
<circle cx="110.5" cy="5.5" r="0.5" fill="#C4C4C4"/>
<circle cx="117.5" cy="5.5" r="0.5" fill="#C4C4C4"/>
<circle cx="124.5" cy="5.5" r="0.5" fill="#C4C4C4"/>
<circle cx="131.5" cy="5.5" r="0.5" fill="#C4C4C4"/>
<circle cx="138.5" cy="5.5" r="0.5" fill="#C4C4C4"/>
<circle cx="145.5" cy="5.5" r="0.5" fill="#C4C4C4"/>
<circle cx="152.5" cy="5.5" r="0.5" fill="#C4C4C4"/>
<circle cx="159.5" cy="5.5" r="0.5" fill="#C4C4C4"/>
<circle cx="166.5" cy="5.5" r="0.5" fill="#C4C4C4"/>
<circle cx="173.5" cy="5.5" r="0.5" fill="#C4C4C4"/>
<circle cx="180.5" cy="5.5" r="0.5" fill="#C4C4C4"/>
<circle cx="187.5" cy="5.5" r="0.5" fill="#C4C4C4"/>
<circle cx="194.5" cy="5.5" r="0.5" fill="#C4C4C4"/>
<circle cx="201.5" cy="5.5" r="0.5" fill="#C4C4C4"/>
<circle cx="208.5" cy="5.5" r="0.5" fill="#C4C4C4"/>
<circle cx="215.5" cy="5.5" r="0.5" fill="#C4C4C4"/>
<circle cx="222.5" cy="5.5" r="0.5" fill="#C4C4C4"/>
<circle cx="229.5" cy="5.5" r="0.5" fill="#C4C4C4"/>
<circle cx="236.5" cy="5.5" r="0.5" fill="#C4C4C4"/>
<circle cx="243.5" cy="5.5" r="0.5" fill="#C4C4C4"/>
<circle cx="250.5" cy="5.5" r="0.5" fill="#C4C4C4"/>
<circle cx="257.5" cy="5.5" r="0.5" fill="#C4C4C4"/>
<circle cx="264.5" cy="5.5" r="0.5" fill="#C4C4C4"/>
<circle cx="271.5" cy="5.5" r="0.5" fill="#C4C4C4"/>
<circle cx="278.5" cy="5.5" r="0.5" fill="#C4C4C4"/>
<circle cx="285.5" cy="5.5" r="0.5" fill="#C4C4C4"/>
<circle cx="292.5" cy="5.5" r="0.5" fill="#C4C4C4"/>
<circle cx="299.5" cy="5.5" r="0.5" fill="#C4C4C4"/>
<circle cx="306.5" cy="5.5" r="0.5" fill="#C4C4C4"/>
<circle cx="313.5" cy="5.5" r="0.5" fill="#C4C4C4"/>
<circle cx="320.5" cy="5.5" r="0.5" fill="#C4C4C4"/>
<circle cx="327.5" cy="5.5" r="0.5" fill="#C4C4C4"/>
<circle cx="334.5" cy="5.5" r="0.5" fill="#C4C4C4"/>
<circle cx="341.5" cy="5.5" r="0.5" fill="#C4C4C4"/>
<circle cx="348.5" cy="5.5" r="0.5" fill="#C4C4C4"/>
<circle cx="355.5" cy="5.5" r="0.5" fill="#C4C4C4"/>
<circle cx="362.5" cy="5.5" r="0.5" fill="#C4C4C4"/>
<circle cx="369.5" cy="5.5" r="0.5" fill="#C4C4C4"/>
<circle cx="376.5" cy="5.5" r="0.5" fill="#C4C4C4"/>
<circle cx="383.5" cy="5.5" r="0.5" fill="#C4C4C4"/>
<circle cx="390.5" cy="5.5" r="0.5" fill="#C4C4C4"/>
<circle cx="397.5" cy="5.5" r="0.5" fill="#C4C4C4"/>
</g>
<g opacity="0.3">
<circle cx="5.25" cy="10.75" r="0.75" fill="#C4C4C4"/>
<circle cx="11.75" cy="10.75" r="0.75" fill="#C4C4C4"/>
<circle cx="18.25" cy="10.75" r="0.75" fill="#C4C4C4"/>
<circle cx="24.75" cy="10.75" r="0.75" fill="#C4C4C4"/>
<circle cx="31.25" cy="10.75" r="0.75" fill="#C4C4C4"/>
<circle cx="37.75" cy="10.75" r="0.75" fill="#C4C4C4"/>
<circle cx="44.25" cy="10.75" r="0.75" fill="#C4C4C4"/>
<circle cx="50.75" cy="10.75" r="0.75" fill="#C4C4C4"/>
<circle cx="57.25" cy="10.75" r="0.75" fill="#C4C4C4"/>
<circle cx="63.75" cy="10.75" r="0.75" fill="#C4C4C4"/>
<circle cx="70.25" cy="10.75" r="0.75" fill="#C4C4C4"/>
<circle cx="76.75" cy="10.75" r="0.75" fill="#C4C4C4"/>
<circle cx="83.25" cy="10.75" r="0.75" fill="#C4C4C4"/>
<circle cx="89.75" cy="10.75" r="0.75" fill="#C4C4C4"/>
<circle cx="96.25" cy="10.75" r="0.75" fill="#C4C4C4"/>
<circle cx="102.75" cy="10.75" r="0.75" fill="#C4C4C4"/>
<circle cx="109.25" cy="10.75" r="0.75" fill="#C4C4C4"/>
<circle cx="115.75" cy="10.75" r="0.75" fill="#C4C4C4"/>
<circle cx="122.25" cy="10.75" r="0.75" fill="#C4C4C4"/>
<circle cx="128.75" cy="10.75" r="0.75" fill="#C4C4C4"/>
<circle cx="135.25" cy="10.75" r="0.75" fill="#C4C4C4"/>
<circle cx="141.75" cy="10.75" r="0.75" fill="#C4C4C4"/>
<circle cx="148.25" cy="10.75" r="0.75" fill="#C4C4C4"/>
<circle cx="154.75" cy="10.75" r="0.75" fill="#C4C4C4"/>
<circle cx="161.25" cy="10.75" r="0.75" fill="#C4C4C4"/>
<circle cx="167.75" cy="10.75" r="0.75" fill="#C4C4C4"/>
<circle cx="174.25" cy="10.75" r="0.75" fill="#C4C4C4"/>
<circle cx="180.75" cy="10.75" r="0.75" fill="#C4C4C4"/>
<circle cx="187.25" cy="10.75" r="0.75" fill="#C4C4C4"/>
<circle cx="193.75" cy="10.75" r="0.75" fill="#C4C4C4"/>
<circle cx="200.25" cy="10.75" r="0.75" fill="#C4C4C4"/>
<circle cx="206.75" cy="10.75" r="0.75" fill="#C4C4C4"/>
<circle cx="213.25" cy="10.75" r="0.75" fill="#C4C4C4"/>
<circle cx="219.75" cy="10.75" r="0.75" fill="#C4C4C4"/>
<circle cx="226.25" cy="10.75" r="0.75" fill="#C4C4C4"/>
<circle cx="232.75" cy="10.75" r="0.75" fill="#C4C4C4"/>
<circle cx="239.25" cy="10.75" r="0.75" fill="#C4C4C4"/>
<circle cx="245.75" cy="10.75" r="0.75" fill="#C4C4C4"/>
<circle cx="252.25" cy="10.75" r="0.75" fill="#C4C4C4"/>
<circle cx="258.75" cy="10.75" r="0.75" fill="#C4C4C4"/>
<circle cx="265.25" cy="10.75" r="0.75" fill="#C4C4C4"/>
<circle cx="271.75" cy="10.75" r="0.75" fill="#C4C4C4"/>
<circle cx="278.25" cy="10.75" r="0.75" fill="#C4C4C4"/>
<circle cx="284.75" cy="10.75" r="0.75" fill="#C4C4C4"/>
<circle cx="291.25" cy="10.75" r="0.75" fill="#C4C4C4"/>
<circle cx="297.75" cy="10.75" r="0.75" fill="#C4C4C4"/>
<circle cx="304.25" cy="10.75" r="0.75" fill="#C4C4C4"/>
<circle cx="310.75" cy="10.75" r="0.75" fill="#C4C4C4"/>
<circle cx="317.25" cy="10.75" r="0.75" fill="#C4C4C4"/>
<circle cx="323.75" cy="10.75" r="0.75" fill="#C4C4C4"/>
<circle cx="330.25" cy="10.75" r="0.75" fill="#C4C4C4"/>
<circle cx="336.75" cy="10.75" r="0.75" fill="#C4C4C4"/>
<circle cx="343.25" cy="10.75" r="0.75" fill="#C4C4C4"/>
<circle cx="349.75" cy="10.75" r="0.75" fill="#C4C4C4"/>
<circle cx="356.25" cy="10.75" r="0.75" fill="#C4C4C4"/>
<circle cx="362.75" cy="10.75" r="0.75" fill="#C4C4C4"/>
<circle cx="369.25" cy="10.75" r="0.75" fill="#C4C4C4"/>
<circle cx="375.75" cy="10.75" r="0.75" fill="#C4C4C4"/>
<circle cx="382.25" cy="10.75" r="0.75" fill="#C4C4C4"/>
<circle cx="388.75" cy="10.75" r="0.75" fill="#C4C4C4"/>
<circle cx="395.25" cy="10.75" r="0.75" fill="#C4C4C4"/>
</g>
<g opacity="0.3">
<circle cx="6" cy="16.5" r="1" fill="#C4C4C4"/>
<circle cx="13" cy="16.5" r="1" fill="#C4C4C4"/>
<circle cx="20" cy="16.5" r="1" fill="#C4C4C4"/>
<circle cx="27" cy="16.5" r="1" fill="#C4C4C4"/>
<circle cx="34" cy="16.5" r="1" fill="#C4C4C4"/>
<circle cx="41" cy="16.5" r="1" fill="#C4C4C4"/>
<circle cx="48" cy="16.5" r="1" fill="#C4C4C4"/>
<circle cx="55" cy="16.5" r="1" fill="#C4C4C4"/>
<circle cx="62" cy="16.5" r="1" fill="#C4C4C4"/>
<circle cx="69" cy="16.5" r="1" fill="#C4C4C4"/>
<circle cx="76" cy="16.5" r="1" fill="#C4C4C4"/>
<circle cx="83" cy="16.5" r="1" fill="#C4C4C4"/>
<circle cx="90" cy="16.5" r="1" fill="#C4C4C4"/>
<circle cx="97" cy="16.5" r="1" fill="#C4C4C4"/>
<circle cx="104" cy="16.5" r="1" fill="#C4C4C4"/>
<circle cx="111" cy="16.5" r="1" fill="#C4C4C4"/>
<circle cx="118" cy="16.5" r="1" fill="#C4C4C4"/>
<circle cx="125" cy="16.5" r="1" fill="#C4C4C4"/>
<circle cx="132" cy="16.5" r="1" fill="#C4C4C4"/>
<circle cx="139" cy="16.5" r="1" fill="#C4C4C4"/>
<circle cx="146" cy="16.5" r="1" fill="#C4C4C4"/>
<circle cx="153" cy="16.5" r="1" fill="#C4C4C4"/>
<circle cx="160" cy="16.5" r="1" fill="#C4C4C4"/>
<circle cx="167" cy="16.5" r="1" fill="#C4C4C4"/>
<circle cx="174" cy="16.5" r="1" fill="#C4C4C4"/>
<circle cx="181" cy="16.5" r="1" fill="#C4C4C4"/>
<circle cx="188" cy="16.5" r="1" fill="#C4C4C4"/>
<circle cx="195" cy="16.5" r="1" fill="#C4C4C4"/>
<circle cx="202" cy="16.5" r="1" fill="#C4C4C4"/>
<circle cx="209" cy="16.5" r="1" fill="#C4C4C4"/>
<circle cx="216" cy="16.5" r="1" fill="#C4C4C4"/>
<circle cx="223" cy="16.5" r="1" fill="#C4C4C4"/>
<circle cx="230" cy="16.5" r="1" fill="#C4C4C4"/>
<circle cx="237" cy="16.5" r="1" fill="#C4C4C4"/>
<circle cx="244" cy="16.5" r="1" fill="#C4C4C4"/>
<circle cx="251" cy="16.5" r="1" fill="#C4C4C4"/>
<circle cx="258" cy="16.5" r="1" fill="#C4C4C4"/>
<circle cx="265" cy="16.5" r="1" fill="#C4C4C4"/>
<circle cx="272" cy="16.5" r="1" fill="#C4C4C4"/>
<circle cx="279" cy="16.5" r="1" fill="#C4C4C4"/>
<circle cx="286" cy="16.5" r="1" fill="#C4C4C4"/>
<circle cx="293" cy="16.5" r="1" fill="#C4C4C4"/>
<circle cx="300" cy="16.5" r="1" fill="#C4C4C4"/>
<circle cx="307" cy="16.5" r="1" fill="#C4C4C4"/>
<circle cx="314" cy="16.5" r="1" fill="#C4C4C4"/>
<circle cx="321" cy="16.5" r="1" fill="#C4C4C4"/>
<circle cx="328" cy="16.5" r="1" fill="#C4C4C4"/>
<circle cx="335" cy="16.5" r="1" fill="#C4C4C4"/>
<circle cx="342" cy="16.5" r="1" fill="#C4C4C4"/>
<circle cx="349" cy="16.5" r="1" fill="#C4C4C4"/>
<circle cx="356" cy="16.5" r="1" fill="#C4C4C4"/>
<circle cx="363" cy="16.5" r="1" fill="#C4C4C4"/>
<circle cx="370" cy="16.5" r="1" fill="#C4C4C4"/>
<circle cx="377" cy="16.5" r="1" fill="#C4C4C4"/>
<circle cx="384" cy="16.5" r="1" fill="#C4C4C4"/>
<circle cx="391" cy="16.5" r="1" fill="#C4C4C4"/>
<circle cx="398" cy="16.5" r="1" fill="#C4C4C4"/>
</g>
<g opacity="0.3">
<circle cx="-0.75" cy="22.75" r="1.25" fill="#C4C4C4"/>
<circle cx="5.75" cy="22.75" r="1.25" fill="#C4C4C4"/>
<circle cx="12.25" cy="22.75" r="1.25" fill="#C4C4C4"/>
<circle cx="18.75" cy="22.75" r="1.25" fill="#C4C4C4"/>
<circle cx="25.25" cy="22.75" r="1.25" fill="#C4C4C4"/>
<circle cx="31.75" cy="22.75" r="1.25" fill="#C4C4C4"/>
<circle cx="38.25" cy="22.75" r="1.25" fill="#C4C4C4"/>
<circle cx="44.75" cy="22.75" r="1.25" fill="#C4C4C4"/>
<circle cx="51.25" cy="22.75" r="1.25" fill="#C4C4C4"/>
<circle cx="57.75" cy="22.75" r="1.25" fill="#C4C4C4"/>
<circle cx="64.25" cy="22.75" r="1.25" fill="#C4C4C4"/>
<circle cx="70.75" cy="22.75" r="1.25" fill="#C4C4C4"/>
<circle cx="77.25" cy="22.75" r="1.25" fill="#C4C4C4"/>
<circle cx="83.75" cy="22.75" r="1.25" fill="#C4C4C4"/>
<circle cx="90.25" cy="22.75" r="1.25" fill="#C4C4C4"/>
<circle cx="96.75" cy="22.75" r="1.25" fill="#C4C4C4"/>
<circle cx="103.25" cy="22.75" r="1.25" fill="#C4C4C4"/>
<circle cx="109.75" cy="22.75" r="1.25" fill="#C4C4C4"/>
<circle cx="116.25" cy="22.75" r="1.25" fill="#C4C4C4"/>
<circle cx="122.75" cy="22.75" r="1.25" fill="#C4C4C4"/>
<circle cx="129.25" cy="22.75" r="1.25" fill="#C4C4C4"/>
<circle cx="135.75" cy="22.75" r="1.25" fill="#C4C4C4"/>
<circle cx="142.25" cy="22.75" r="1.25" fill="#C4C4C4"/>
<circle cx="148.75" cy="22.75" r="1.25" fill="#C4C4C4"/>
<circle cx="155.25" cy="22.75" r="1.25" fill="#C4C4C4"/>
<circle cx="161.75" cy="22.75" r="1.25" fill="#C4C4C4"/>
<circle cx="168.25" cy="22.75" r="1.25" fill="#C4C4C4"/>
<circle cx="174.75" cy="22.75" r="1.25" fill="#C4C4C4"/>
<circle cx="181.25" cy="22.75" r="1.25" fill="#C4C4C4"/>
<circle cx="187.75" cy="22.75" r="1.25" fill="#C4C4C4"/>
<circle cx="194.25" cy="22.75" r="1.25" fill="#C4C4C4"/>
<circle cx="200.75" cy="22.75" r="1.25" fill="#C4C4C4"/>
<circle cx="207.25" cy="22.75" r="1.25" fill="#C4C4C4"/>
<circle cx="213.75" cy="22.75" r="1.25" fill="#C4C4C4"/>
<circle cx="220.25" cy="22.75" r="1.25" fill="#C4C4C4"/>
<circle cx="226.75" cy="22.75" r="1.25" fill="#C4C4C4"/>
<circle cx="233.25" cy="22.75" r="1.25" fill="#C4C4C4"/>
<circle cx="239.75" cy="22.75" r="1.25" fill="#C4C4C4"/>
<circle cx="246.25" cy="22.75" r="1.25" fill="#C4C4C4"/>
<circle cx="252.75" cy="22.75" r="1.25" fill="#C4C4C4"/>
<circle cx="259.25" cy="22.75" r="1.25" fill="#C4C4C4"/>
<circle cx="265.75" cy="22.75" r="1.25" fill="#C4C4C4"/>
<circle cx="272.25" cy="22.75" r="1.25" fill="#C4C4C4"/>
<circle cx="278.75" cy="22.75" r="1.25" fill="#C4C4C4"/>
<circle cx="285.25" cy="22.75" r="1.25" fill="#C4C4C4"/>
<circle cx="291.75" cy="22.75" r="1.25" fill="#C4C4C4"/>
<circle cx="298.25" cy="22.75" r="1.25" fill="#C4C4C4"/>
<circle cx="304.75" cy="22.75" r="1.25" fill="#C4C4C4"/>
<circle cx="311.25" cy="22.75" r="1.25" fill="#C4C4C4"/>
<circle cx="317.75" cy="22.75" r="1.25" fill="#C4C4C4"/>
<circle cx="324.25" cy="22.75" r="1.25" fill="#C4C4C4"/>
<circle cx="330.75" cy="22.75" r="1.25" fill="#C4C4C4"/>
<circle cx="337.25" cy="22.75" r="1.25" fill="#C4C4C4"/>
<circle cx="343.75" cy="22.75" r="1.25" fill="#C4C4C4"/>
<circle cx="350.25" cy="22.75" r="1.25" fill="#C4C4C4"/>
<circle cx="356.75" cy="22.75" r="1.25" fill="#C4C4C4"/>
<circle cx="363.25" cy="22.75" r="1.25" fill="#C4C4C4"/>
<circle cx="369.75" cy="22.75" r="1.25" fill="#C4C4C4"/>
<circle cx="376.25" cy="22.75" r="1.25" fill="#C4C4C4"/>
<circle cx="382.75" cy="22.75" r="1.25" fill="#C4C4C4"/>
<circle cx="389.25" cy="22.75" r="1.25" fill="#C4C4C4"/>
<circle cx="395.75" cy="22.75" r="1.25" fill="#C4C4C4"/>
</g>
<g opacity="0.3">
<circle cx="-0.5" cy="29.5" r="1.5" fill="#C4C4C4"/>
<circle cx="6.5" cy="29.5" r="1.5" fill="#C4C4C4"/>
<circle cx="13.5" cy="29.5" r="1.5" fill="#C4C4C4"/>
<circle cx="20.5" cy="29.5" r="1.5" fill="#C4C4C4"/>
<circle cx="27.5" cy="29.5" r="1.5" fill="#C4C4C4"/>
<circle cx="34.5" cy="29.5" r="1.5" fill="#C4C4C4"/>
<circle cx="41.5" cy="29.5" r="1.5" fill="#C4C4C4"/>
<circle cx="48.5" cy="29.5" r="1.5" fill="#C4C4C4"/>
<circle cx="55.5" cy="29.5" r="1.5" fill="#C4C4C4"/>
<circle cx="62.5" cy="29.5" r="1.5" fill="#C4C4C4"/>
<circle cx="69.5" cy="29.5" r="1.5" fill="#C4C4C4"/>
<circle cx="76.5" cy="29.5" r="1.5" fill="#C4C4C4"/>
<circle cx="83.5" cy="29.5" r="1.5" fill="#C4C4C4"/>
<circle cx="90.5" cy="29.5" r="1.5" fill="#C4C4C4"/>
<circle cx="97.5" cy="29.5" r="1.5" fill="#C4C4C4"/>
<circle cx="104.5" cy="29.5" r="1.5" fill="#C4C4C4"/>
<circle cx="111.5" cy="29.5" r="1.5" fill="#C4C4C4"/>
<circle cx="118.5" cy="29.5" r="1.5" fill="#C4C4C4"/>
<circle cx="125.5" cy="29.5" r="1.5" fill="#C4C4C4"/>
<circle cx="132.5" cy="29.5" r="1.5" fill="#C4C4C4"/>
<circle cx="139.5" cy="29.5" r="1.5" fill="#C4C4C4"/>
<circle cx="146.5" cy="29.5" r="1.5" fill="#C4C4C4"/>
<circle cx="153.5" cy="29.5" r="1.5" fill="#C4C4C4"/>
<circle cx="160.5" cy="29.5" r="1.5" fill="#C4C4C4"/>
<circle cx="167.5" cy="29.5" r="1.5" fill="#C4C4C4"/>
<circle cx="174.5" cy="29.5" r="1.5" fill="#C4C4C4"/>
<circle cx="181.5" cy="29.5" r="1.5" fill="#C4C4C4"/>
<circle cx="188.5" cy="29.5" r="1.5" fill="#C4C4C4"/>
<circle cx="195.5" cy="29.5" r="1.5" fill="#C4C4C4"/>
<circle cx="202.5" cy="29.5" r="1.5" fill="#C4C4C4"/>
<circle cx="209.5" cy="29.5" r="1.5" fill="#C4C4C4"/>
<circle cx="216.5" cy="29.5" r="1.5" fill="#C4C4C4"/>
<circle cx="223.5" cy="29.5" r="1.5" fill="#C4C4C4"/>
<circle cx="230.5" cy="29.5" r="1.5" fill="#C4C4C4"/>
<circle cx="237.5" cy="29.5" r="1.5" fill="#C4C4C4"/>
<circle cx="244.5" cy="29.5" r="1.5" fill="#C4C4C4"/>
<circle cx="251.5" cy="29.5" r="1.5" fill="#C4C4C4"/>
<circle cx="258.5" cy="29.5" r="1.5" fill="#C4C4C4"/>
<circle cx="265.5" cy="29.5" r="1.5" fill="#C4C4C4"/>
<circle cx="272.5" cy="29.5" r="1.5" fill="#C4C4C4"/>
<circle cx="279.5" cy="29.5" r="1.5" fill="#C4C4C4"/>
<circle cx="286.5" cy="29.5" r="1.5" fill="#C4C4C4"/>
<circle cx="293.5" cy="29.5" r="1.5" fill="#C4C4C4"/>
<circle cx="300.5" cy="29.5" r="1.5" fill="#C4C4C4"/>
<circle cx="307.5" cy="29.5" r="1.5" fill="#C4C4C4"/>
<circle cx="314.5" cy="29.5" r="1.5" fill="#C4C4C4"/>
<circle cx="321.5" cy="29.5" r="1.5" fill="#C4C4C4"/>
<circle cx="328.5" cy="29.5" r="1.5" fill="#C4C4C4"/>
<circle cx="335.5" cy="29.5" r="1.5" fill="#C4C4C4"/>
<circle cx="342.5" cy="29.5" r="1.5" fill="#C4C4C4"/>
<circle cx="349.5" cy="29.5" r="1.5" fill="#C4C4C4"/>
<circle cx="356.5" cy="29.5" r="1.5" fill="#C4C4C4"/>
<circle cx="363.5" cy="29.5" r="1.5" fill="#C4C4C4"/>
<circle cx="370.5" cy="29.5" r="1.5" fill="#C4C4C4"/>
<circle cx="377.5" cy="29.5" r="1.5" fill="#C4C4C4"/>
<circle cx="384.5" cy="29.5" r="1.5" fill="#C4C4C4"/>
<circle cx="391.5" cy="29.5" r="1.5" fill="#C4C4C4"/>
<circle cx="398.5" cy="29.5" r="1.5" fill="#C4C4C4"/>
</g>
<g opacity="0.3">
<circle cx="-0.25" cy="36.75" r="1.75" fill="#C4C4C4"/>
<circle cx="6.25" cy="36.75" r="1.75" fill="#C4C4C4"/>
<circle cx="12.75" cy="36.75" r="1.75" fill="#C4C4C4"/>
<circle cx="19.25" cy="36.75" r="1.75" fill="#C4C4C4"/>
<circle cx="25.75" cy="36.75" r="1.75" fill="#C4C4C4"/>
<circle cx="32.25" cy="36.75" r="1.75" fill="#C4C4C4"/>
<circle cx="38.75" cy="36.75" r="1.75" fill="#C4C4C4"/>
<circle cx="45.25" cy="36.75" r="1.75" fill="#C4C4C4"/>
<circle cx="51.75" cy="36.75" r="1.75" fill="#C4C4C4"/>
<circle cx="58.25" cy="36.75" r="1.75" fill="#C4C4C4"/>
<circle cx="64.75" cy="36.75" r="1.75" fill="#C4C4C4"/>
<circle cx="71.25" cy="36.75" r="1.75" fill="#C4C4C4"/>
<circle cx="77.75" cy="36.75" r="1.75" fill="#C4C4C4"/>
<circle cx="84.25" cy="36.75" r="1.75" fill="#C4C4C4"/>
<circle cx="90.75" cy="36.75" r="1.75" fill="#C4C4C4"/>
<circle cx="97.25" cy="36.75" r="1.75" fill="#C4C4C4"/>
<circle cx="103.75" cy="36.75" r="1.75" fill="#C4C4C4"/>
<circle cx="110.25" cy="36.75" r="1.75" fill="#C4C4C4"/>
<circle cx="116.75" cy="36.75" r="1.75" fill="#C4C4C4"/>
<circle cx="123.25" cy="36.75" r="1.75" fill="#C4C4C4"/>
<circle cx="129.75" cy="36.75" r="1.75" fill="#C4C4C4"/>
<circle cx="136.25" cy="36.75" r="1.75" fill="#C4C4C4"/>
<circle cx="142.75" cy="36.75" r="1.75" fill="#C4C4C4"/>
<circle cx="149.25" cy="36.75" r="1.75" fill="#C4C4C4"/>
<circle cx="155.75" cy="36.75" r="1.75" fill="#C4C4C4"/>
<circle cx="162.25" cy="36.75" r="1.75" fill="#C4C4C4"/>
<circle cx="168.75" cy="36.75" r="1.75" fill="#C4C4C4"/>
<circle cx="175.25" cy="36.75" r="1.75" fill="#C4C4C4"/>
<circle cx="181.75" cy="36.75" r="1.75" fill="#C4C4C4"/>
<circle cx="188.25" cy="36.75" r="1.75" fill="#C4C4C4"/>
<circle cx="194.75" cy="36.75" r="1.75" fill="#C4C4C4"/>
<circle cx="201.25" cy="36.75" r="1.75" fill="#C4C4C4"/>
<circle cx="207.75" cy="36.75" r="1.75" fill="#C4C4C4"/>
<circle cx="214.25" cy="36.75" r="1.75" fill="#C4C4C4"/>
<circle cx="220.75" cy="36.75" r="1.75" fill="#C4C4C4"/>
<circle cx="227.25" cy="36.75" r="1.75" fill="#C4C4C4"/>
<circle cx="233.75" cy="36.75" r="1.75" fill="#C4C4C4"/>
<circle cx="240.25" cy="36.75" r="1.75" fill="#C4C4C4"/>
<circle cx="246.75" cy="36.75" r="1.75" fill="#C4C4C4"/>
<circle cx="253.25" cy="36.75" r="1.75" fill="#C4C4C4"/>
<circle cx="259.75" cy="36.75" r="1.75" fill="#C4C4C4"/>
<circle cx="266.25" cy="36.75" r="1.75" fill="#C4C4C4"/>
<circle cx="272.75" cy="36.75" r="1.75" fill="#C4C4C4"/>
<circle cx="279.25" cy="36.75" r="1.75" fill="#C4C4C4"/>
<circle cx="285.75" cy="36.75" r="1.75" fill="#C4C4C4"/>
<circle cx="292.25" cy="36.75" r="1.75" fill="#C4C4C4"/>
<circle cx="298.75" cy="36.75" r="1.75" fill="#C4C4C4"/>
<circle cx="305.25" cy="36.75" r="1.75" fill="#C4C4C4"/>
<circle cx="311.75" cy="36.75" r="1.75" fill="#C4C4C4"/>
<circle cx="318.25" cy="36.75" r="1.75" fill="#C4C4C4"/>
<circle cx="324.75" cy="36.75" r="1.75" fill="#C4C4C4"/>
<circle cx="331.25" cy="36.75" r="1.75" fill="#C4C4C4"/>
<circle cx="337.75" cy="36.75" r="1.75" fill="#C4C4C4"/>
<circle cx="344.25" cy="36.75" r="1.75" fill="#C4C4C4"/>
<circle cx="350.75" cy="36.75" r="1.75" fill="#C4C4C4"/>
<circle cx="357.25" cy="36.75" r="1.75" fill="#C4C4C4"/>
<circle cx="363.75" cy="36.75" r="1.75" fill="#C4C4C4"/>
<circle cx="370.25" cy="36.75" r="1.75" fill="#C4C4C4"/>
<circle cx="376.75" cy="36.75" r="1.75" fill="#C4C4C4"/>
<circle cx="383.25" cy="36.75" r="1.75" fill="#C4C4C4"/>
<circle cx="389.75" cy="36.75" r="1.75" fill="#C4C4C4"/>
<circle cx="396.25" cy="36.75" r="1.75" fill="#C4C4C4"/>
</g>
<g opacity="0.3">
<circle cy="44.5" r="2" fill="#C4C4C4"/>
<circle cx="7" cy="44.5" r="2" fill="#C4C4C4"/>
<circle cx="14" cy="44.5" r="2" fill="#C4C4C4"/>
<circle cx="21" cy="44.5" r="2" fill="#C4C4C4"/>
<circle cx="28" cy="44.5" r="2" fill="#C4C4C4"/>
<circle cx="35" cy="44.5" r="2" fill="#C4C4C4"/>
<circle cx="42" cy="44.5" r="2" fill="#C4C4C4"/>
<circle cx="49" cy="44.5" r="2" fill="#C4C4C4"/>
<circle cx="56" cy="44.5" r="2" fill="#C4C4C4"/>
<circle cx="63" cy="44.5" r="2" fill="#C4C4C4"/>
<circle cx="70" cy="44.5" r="2" fill="#C4C4C4"/>
<circle cx="77" cy="44.5" r="2" fill="#C4C4C4"/>
<circle cx="84" cy="44.5" r="2" fill="#C4C4C4"/>
<circle cx="91" cy="44.5" r="2" fill="#C4C4C4"/>
<circle cx="98" cy="44.5" r="2" fill="#C4C4C4"/>
<circle cx="105" cy="44.5" r="2" fill="#C4C4C4"/>
<circle cx="112" cy="44.5" r="2" fill="#C4C4C4"/>
<circle cx="119" cy="44.5" r="2" fill="#C4C4C4"/>
<circle cx="126" cy="44.5" r="2" fill="#C4C4C4"/>
<circle cx="133" cy="44.5" r="2" fill="#C4C4C4"/>
<circle cx="140" cy="44.5" r="2" fill="#C4C4C4"/>
<circle cx="147" cy="44.5" r="2" fill="#C4C4C4"/>
<circle cx="154" cy="44.5" r="2" fill="#C4C4C4"/>
<circle cx="161" cy="44.5" r="2" fill="#C4C4C4"/>
<circle cx="168" cy="44.5" r="2" fill="#C4C4C4"/>
<circle cx="175" cy="44.5" r="2" fill="#C4C4C4"/>
<circle cx="182" cy="44.5" r="2" fill="#C4C4C4"/>
<circle cx="189" cy="44.5" r="2" fill="#C4C4C4"/>
<circle cx="196" cy="44.5" r="2" fill="#C4C4C4"/>
<circle cx="203" cy="44.5" r="2" fill="#C4C4C4"/>
<circle cx="210" cy="44.5" r="2" fill="#C4C4C4"/>
<circle cx="217" cy="44.5" r="2" fill="#C4C4C4"/>
<circle cx="224" cy="44.5" r="2" fill="#C4C4C4"/>
<circle cx="231" cy="44.5" r="2" fill="#C4C4C4"/>
<circle cx="238" cy="44.5" r="2" fill="#C4C4C4"/>
<circle cx="245" cy="44.5" r="2" fill="#C4C4C4"/>
<circle cx="252" cy="44.5" r="2" fill="#C4C4C4"/>
<circle cx="259" cy="44.5" r="2" fill="#C4C4C4"/>
<circle cx="266" cy="44.5" r="2" fill="#C4C4C4"/>
<circle cx="273" cy="44.5" r="2" fill="#C4C4C4"/>
<circle cx="280" cy="44.5" r="2" fill="#C4C4C4"/>
<circle cx="287" cy="44.5" r="2" fill="#C4C4C4"/>
<circle cx="294" cy="44.5" r="2" fill="#C4C4C4"/>
<circle cx="301" cy="44.5" r="2" fill="#C4C4C4"/>
<circle cx="308" cy="44.5" r="2" fill="#C4C4C4"/>
<circle cx="315" cy="44.5" r="2" fill="#C4C4C4"/>
<circle cx="322" cy="44.5" r="2" fill="#C4C4C4"/>
<circle cx="329" cy="44.5" r="2" fill="#C4C4C4"/>
<circle cx="336" cy="44.5" r="2" fill="#C4C4C4"/>
<circle cx="343" cy="44.5" r="2" fill="#C4C4C4"/>
<circle cx="350" cy="44.5" r="2" fill="#C4C4C4"/>
<circle cx="357" cy="44.5" r="2" fill="#C4C4C4"/>
<circle cx="364" cy="44.5" r="2" fill="#C4C4C4"/>
<circle cx="371" cy="44.5" r="2" fill="#C4C4C4"/>
<circle cx="378" cy="44.5" r="2" fill="#C4C4C4"/>
<circle cx="385" cy="44.5" r="2" fill="#C4C4C4"/>
<circle cx="392" cy="44.5" r="2" fill="#C4C4C4"/>
<circle cx="399" cy="44.5" r="2" fill="#C4C4C4"/>
</g>
<g opacity="0.3">
<circle cx="0.25" cy="52.75" r="2.25" fill="#C4C4C4"/>
<circle cx="6.75" cy="52.75" r="2.25" fill="#C4C4C4"/>
<circle cx="13.25" cy="52.75" r="2.25" fill="#C4C4C4"/>
<circle cx="19.75" cy="52.75" r="2.25" fill="#C4C4C4"/>
<circle cx="26.25" cy="52.75" r="2.25" fill="#C4C4C4"/>
<circle cx="32.75" cy="52.75" r="2.25" fill="#C4C4C4"/>
<circle cx="39.25" cy="52.75" r="2.25" fill="#C4C4C4"/>
<circle cx="45.75" cy="52.75" r="2.25" fill="#C4C4C4"/>
<circle cx="52.25" cy="52.75" r="2.25" fill="#C4C4C4"/>
<circle cx="58.75" cy="52.75" r="2.25" fill="#C4C4C4"/>
<circle cx="65.25" cy="52.75" r="2.25" fill="#C4C4C4"/>
<circle cx="71.75" cy="52.75" r="2.25" fill="#C4C4C4"/>
<circle cx="78.25" cy="52.75" r="2.25" fill="#C4C4C4"/>
<circle cx="84.75" cy="52.75" r="2.25" fill="#C4C4C4"/>
<circle cx="91.25" cy="52.75" r="2.25" fill="#C4C4C4"/>
<circle cx="97.75" cy="52.75" r="2.25" fill="#C4C4C4"/>
<circle cx="104.25" cy="52.75" r="2.25" fill="#C4C4C4"/>
<circle cx="110.75" cy="52.75" r="2.25" fill="#C4C4C4"/>
<circle cx="117.25" cy="52.75" r="2.25" fill="#C4C4C4"/>
<circle cx="123.75" cy="52.75" r="2.25" fill="#C4C4C4"/>
<circle cx="130.25" cy="52.75" r="2.25" fill="#C4C4C4"/>
<circle cx="136.75" cy="52.75" r="2.25" fill="#C4C4C4"/>
<circle cx="143.25" cy="52.75" r="2.25" fill="#C4C4C4"/>
<circle cx="149.75" cy="52.75" r="2.25" fill="#C4C4C4"/>
<circle cx="156.25" cy="52.75" r="2.25" fill="#C4C4C4"/>
<circle cx="162.75" cy="52.75" r="2.25" fill="#C4C4C4"/>
<circle cx="169.25" cy="52.75" r="2.25" fill="#C4C4C4"/>
<circle cx="175.75" cy="52.75" r="2.25" fill="#C4C4C4"/>
<circle cx="182.25" cy="52.75" r="2.25" fill="#C4C4C4"/>
<circle cx="188.75" cy="52.75" r="2.25" fill="#C4C4C4"/>
<circle cx="195.25" cy="52.75" r="2.25" fill="#C4C4C4"/>
<circle cx="201.75" cy="52.75" r="2.25" fill="#C4C4C4"/>
<circle cx="208.25" cy="52.75" r="2.25" fill="#C4C4C4"/>
<circle cx="214.75" cy="52.75" r="2.25" fill="#C4C4C4"/>
<circle cx="221.25" cy="52.75" r="2.25" fill="#C4C4C4"/>
<circle cx="227.75" cy="52.75" r="2.25" fill="#C4C4C4"/>
<circle cx="234.25" cy="52.75" r="2.25" fill="#C4C4C4"/>
<circle cx="240.75" cy="52.75" r="2.25" fill="#C4C4C4"/>
<circle cx="247.25" cy="52.75" r="2.25" fill="#C4C4C4"/>
<circle cx="253.75" cy="52.75" r="2.25" fill="#C4C4C4"/>
<circle cx="260.25" cy="52.75" r="2.25" fill="#C4C4C4"/>
<circle cx="266.75" cy="52.75" r="2.25" fill="#C4C4C4"/>
<circle cx="273.25" cy="52.75" r="2.25" fill="#C4C4C4"/>
<circle cx="279.75" cy="52.75" r="2.25" fill="#C4C4C4"/>
<circle cx="286.25" cy="52.75" r="2.25" fill="#C4C4C4"/>
<circle cx="292.75" cy="52.75" r="2.25" fill="#C4C4C4"/>
<circle cx="299.25" cy="52.75" r="2.25" fill="#C4C4C4"/>
<circle cx="305.75" cy="52.75" r="2.25" fill="#C4C4C4"/>
<circle cx="312.25" cy="52.75" r="2.25" fill="#C4C4C4"/>
<circle cx="318.75" cy="52.75" r="2.25" fill="#C4C4C4"/>
<circle cx="325.25" cy="52.75" r="2.25" fill="#C4C4C4"/>
<circle cx="331.75" cy="52.75" r="2.25" fill="#C4C4C4"/>
<circle cx="338.25" cy="52.75" r="2.25" fill="#C4C4C4"/>
<circle cx="344.75" cy="52.75" r="2.25" fill="#C4C4C4"/>
<circle cx="351.25" cy="52.75" r="2.25" fill="#C4C4C4"/>
<circle cx="357.75" cy="52.75" r="2.25" fill="#C4C4C4"/>
<circle cx="364.25" cy="52.75" r="2.25" fill="#C4C4C4"/>
<circle cx="370.75" cy="52.75" r="2.25" fill="#C4C4C4"/>
</g>
<g opacity="0.3">
<circle cx="0.5" cy="61.5" r="2.5" fill="#C4C4C4"/>
<circle cx="7.5" cy="61.5" r="2.5" fill="#C4C4C4"/>
<circle cx="14.5" cy="61.5" r="2.5" fill="#C4C4C4"/>
<circle cx="21.5" cy="61.5" r="2.5" fill="#C4C4C4"/>
<circle cx="28.5" cy="61.5" r="2.5" fill="#C4C4C4"/>
<circle cx="35.5" cy="61.5" r="2.5" fill="#C4C4C4"/>
<circle cx="42.5" cy="61.5" r="2.5" fill="#C4C4C4"/>
<circle cx="49.5" cy="61.5" r="2.5" fill="#C4C4C4"/>
<circle cx="56.5" cy="61.5" r="2.5" fill="#C4C4C4"/>
<circle cx="63.5" cy="61.5" r="2.5" fill="#C4C4C4"/>
<circle cx="70.5" cy="61.5" r="2.5" fill="#C4C4C4"/>
<circle cx="77.5" cy="61.5" r="2.5" fill="#C4C4C4"/>
<circle cx="84.5" cy="61.5" r="2.5" fill="#C4C4C4"/>
<circle cx="91.5" cy="61.5" r="2.5" fill="#C4C4C4"/>
<circle cx="98.5" cy="61.5" r="2.5" fill="#C4C4C4"/>
<circle cx="105.5" cy="61.5" r="2.5" fill="#C4C4C4"/>
<circle cx="112.5" cy="61.5" r="2.5" fill="#C4C4C4"/>
<circle cx="119.5" cy="61.5" r="2.5" fill="#C4C4C4"/>
<circle cx="126.5" cy="61.5" r="2.5" fill="#C4C4C4"/>
<circle cx="133.5" cy="61.5" r="2.5" fill="#C4C4C4"/>
<circle cx="140.5" cy="61.5" r="2.5" fill="#C4C4C4"/>
<circle cx="147.5" cy="61.5" r="2.5" fill="#C4C4C4"/>
<circle cx="154.5" cy="61.5" r="2.5" fill="#C4C4C4"/>
<circle cx="161.5" cy="61.5" r="2.5" fill="#C4C4C4"/>
<circle cx="168.5" cy="61.5" r="2.5" fill="#C4C4C4"/>
<circle cx="175.5" cy="61.5" r="2.5" fill="#C4C4C4"/>
<circle cx="182.5" cy="61.5" r="2.5" fill="#C4C4C4"/>
<circle cx="189.5" cy="61.5" r="2.5" fill="#C4C4C4"/>
<circle cx="196.5" cy="61.5" r="2.5" fill="#C4C4C4"/>
<circle cx="203.5" cy="61.5" r="2.5" fill="#C4C4C4"/>
<circle cx="210.5" cy="61.5" r="2.5" fill="#C4C4C4"/>
<circle cx="217.5" cy="61.5" r="2.5" fill="#C4C4C4"/>
<circle cx="224.5" cy="61.5" r="2.5" fill="#C4C4C4"/>
<circle cx="231.5" cy="61.5" r="2.5" fill="#C4C4C4"/>
<circle cx="238.5" cy="61.5" r="2.5" fill="#C4C4C4"/>
<circle cx="245.5" cy="61.5" r="2.5" fill="#C4C4C4"/>
<circle cx="252.5" cy="61.5" r="2.5" fill="#C4C4C4"/>
<circle cx="259.5" cy="61.5" r="2.5" fill="#C4C4C4"/>
<circle cx="266.5" cy="61.5" r="2.5" fill="#C4C4C4"/>
<circle cx="273.5" cy="61.5" r="2.5" fill="#C4C4C4"/>
<circle cx="280.5" cy="61.5" r="2.5" fill="#C4C4C4"/>
<circle cx="287.5" cy="61.5" r="2.5" fill="#C4C4C4"/>
<circle cx="294.5" cy="61.5" r="2.5" fill="#C4C4C4"/>
<circle cx="301.5" cy="61.5" r="2.5" fill="#C4C4C4"/>
<circle cx="308.5" cy="61.5" r="2.5" fill="#C4C4C4"/>
<circle cx="315.5" cy="61.5" r="2.5" fill="#C4C4C4"/>
<circle cx="322.5" cy="61.5" r="2.5" fill="#C4C4C4"/>
<circle cx="329.5" cy="61.5" r="2.5" fill="#C4C4C4"/>
<circle cx="336.5" cy="61.5" r="2.5" fill="#C4C4C4"/>
<circle cx="343.5" cy="61.5" r="2.5" fill="#C4C4C4"/>
<circle cx="350.5" cy="61.5" r="2.5" fill="#C4C4C4"/>
<circle cx="357.5" cy="61.5" r="2.5" fill="#C4C4C4"/>
<circle cx="364.5" cy="61.5" r="2.5" fill="#C4C4C4"/>
<circle cx="371.5" cy="61.5" r="2.5" fill="#C4C4C4"/>
<circle cx="378.5" cy="61.5" r="2.5" fill="#C4C4C4"/>
<circle cx="385.5" cy="61.5" r="2.5" fill="#C4C4C4"/>
<circle cx="392.5" cy="61.5" r="2.5" fill="#C4C4C4"/>
<circle cx="399.5" cy="61.5" r="2.5" fill="#C4C4C4"/>
</g>
</svg>
