<svg width="400" height="64" viewBox="0 0 400 64" fill="none" xmlns="http://www.w3.org/2000/svg">
<g opacity="0.3">
<circle r="0.25" transform="matrix(1 0 0 -1 4.75 63.25)" fill="#C4C4C4"/>
<circle r="0.25" transform="matrix(1 0 0 -1 11.25 63.25)" fill="#C4C4C4"/>
<circle r="0.25" transform="matrix(1 0 0 -1 17.75 63.25)" fill="#C4C4C4"/>
<circle r="0.25" transform="matrix(1 0 0 -1 24.25 63.25)" fill="#C4C4C4"/>
<circle r="0.25" transform="matrix(1 0 0 -1 30.75 63.25)" fill="#C4C4C4"/>
<circle r="0.25" transform="matrix(1 0 0 -1 37.25 63.25)" fill="#C4C4C4"/>
<circle r="0.25" transform="matrix(1 0 0 -1 43.75 63.25)" fill="#C4C4C4"/>
<circle r="0.25" transform="matrix(1 0 0 -1 50.25 63.25)" fill="#C4C4C4"/>
<circle r="0.25" transform="matrix(1 0 0 -1 56.75 63.25)" fill="#C4C4C4"/>
<circle r="0.25" transform="matrix(1 0 0 -1 63.25 63.25)" fill="#C4C4C4"/>
<circle r="0.25" transform="matrix(1 0 0 -1 69.75 63.25)" fill="#C4C4C4"/>
<circle r="0.25" transform="matrix(1 0 0 -1 76.25 63.25)" fill="#C4C4C4"/>
<circle r="0.25" transform="matrix(1 0 0 -1 82.75 63.25)" fill="#C4C4C4"/>
<circle r="0.25" transform="matrix(1 0 0 -1 89.25 63.25)" fill="#C4C4C4"/>
<circle r="0.25" transform="matrix(1 0 0 -1 95.75 63.25)" fill="#C4C4C4"/>
<circle r="0.25" transform="matrix(1 0 0 -1 102.25 63.25)" fill="#C4C4C4"/>
<circle r="0.25" transform="matrix(1 0 0 -1 108.75 63.25)" fill="#C4C4C4"/>
<circle r="0.25" transform="matrix(1 0 0 -1 115.25 63.25)" fill="#C4C4C4"/>
<circle r="0.25" transform="matrix(1 0 0 -1 121.75 63.25)" fill="#C4C4C4"/>
<circle r="0.25" transform="matrix(1 0 0 -1 128.25 63.25)" fill="#C4C4C4"/>
<circle r="0.25" transform="matrix(1 0 0 -1 134.75 63.25)" fill="#C4C4C4"/>
<circle r="0.25" transform="matrix(1 0 0 -1 141.25 63.25)" fill="#C4C4C4"/>
<circle r="0.25" transform="matrix(1 0 0 -1 147.75 63.25)" fill="#C4C4C4"/>
<circle r="0.25" transform="matrix(1 0 0 -1 154.25 63.25)" fill="#C4C4C4"/>
<circle r="0.25" transform="matrix(1 0 0 -1 160.75 63.25)" fill="#C4C4C4"/>
<circle r="0.25" transform="matrix(1 0 0 -1 167.25 63.25)" fill="#C4C4C4"/>
<circle r="0.25" transform="matrix(1 0 0 -1 173.75 63.25)" fill="#C4C4C4"/>
<circle r="0.25" transform="matrix(1 0 0 -1 180.25 63.25)" fill="#C4C4C4"/>
<circle r="0.25" transform="matrix(1 0 0 -1 186.75 63.25)" fill="#C4C4C4"/>
<circle r="0.25" transform="matrix(1 0 0 -1 193.25 63.25)" fill="#C4C4C4"/>
<circle r="0.25" transform="matrix(1 0 0 -1 199.75 63.25)" fill="#C4C4C4"/>
<circle r="0.25" transform="matrix(1 0 0 -1 206.25 63.25)" fill="#C4C4C4"/>
<circle r="0.25" transform="matrix(1 0 0 -1 212.75 63.25)" fill="#C4C4C4"/>
<circle r="0.25" transform="matrix(1 0 0 -1 219.25 63.25)" fill="#C4C4C4"/>
<circle r="0.25" transform="matrix(1 0 0 -1 225.75 63.25)" fill="#C4C4C4"/>
<circle r="0.25" transform="matrix(1 0 0 -1 232.25 63.25)" fill="#C4C4C4"/>
<circle r="0.25" transform="matrix(1 0 0 -1 238.75 63.25)" fill="#C4C4C4"/>
<circle r="0.25" transform="matrix(1 0 0 -1 245.25 63.25)" fill="#C4C4C4"/>
<circle r="0.25" transform="matrix(1 0 0 -1 251.75 63.25)" fill="#C4C4C4"/>
<circle r="0.25" transform="matrix(1 0 0 -1 258.25 63.25)" fill="#C4C4C4"/>
<circle r="0.25" transform="matrix(1 0 0 -1 264.75 63.25)" fill="#C4C4C4"/>
<circle r="0.25" transform="matrix(1 0 0 -1 271.25 63.25)" fill="#C4C4C4"/>
<circle r="0.25" transform="matrix(1 0 0 -1 277.75 63.25)" fill="#C4C4C4"/>
<circle r="0.25" transform="matrix(1 0 0 -1 284.25 63.25)" fill="#C4C4C4"/>
<circle r="0.25" transform="matrix(1 0 0 -1 290.75 63.25)" fill="#C4C4C4"/>
<circle r="0.25" transform="matrix(1 0 0 -1 297.25 63.25)" fill="#C4C4C4"/>
<circle r="0.25" transform="matrix(1 0 0 -1 303.75 63.25)" fill="#C4C4C4"/>
<circle r="0.25" transform="matrix(1 0 0 -1 310.25 63.25)" fill="#C4C4C4"/>
<circle r="0.25" transform="matrix(1 0 0 -1 316.75 63.25)" fill="#C4C4C4"/>
<circle r="0.25" transform="matrix(1 0 0 -1 323.25 63.25)" fill="#C4C4C4"/>
<circle r="0.25" transform="matrix(1 0 0 -1 329.75 63.25)" fill="#C4C4C4"/>
<circle r="0.25" transform="matrix(1 0 0 -1 336.25 63.25)" fill="#C4C4C4"/>
<circle r="0.25" transform="matrix(1 0 0 -1 342.75 63.25)" fill="#C4C4C4"/>
<circle r="0.25" transform="matrix(1 0 0 -1 349.25 63.25)" fill="#C4C4C4"/>
<circle r="0.25" transform="matrix(1 0 0 -1 355.75 63.25)" fill="#C4C4C4"/>
<circle r="0.25" transform="matrix(1 0 0 -1 362.25 63.25)" fill="#C4C4C4"/>
<circle r="0.25" transform="matrix(1 0 0 -1 368.75 63.25)" fill="#C4C4C4"/>
<circle r="0.25" transform="matrix(1 0 0 -1 375.25 63.25)" fill="#C4C4C4"/>
<circle r="0.25" transform="matrix(1 0 0 -1 381.75 63.25)" fill="#C4C4C4"/>
<circle r="0.25" transform="matrix(1 0 0 -1 388.25 63.25)" fill="#C4C4C4"/>
<circle r="0.25" transform="matrix(1 0 0 -1 394.75 63.25)" fill="#C4C4C4"/>
</g>
<g opacity="0.3">
<circle r="0.5" transform="matrix(1 0 0 -1 5.5 58.5)" fill="#C4C4C4"/>
<circle r="0.5" transform="matrix(1 0 0 -1 12.5 58.5)" fill="#C4C4C4"/>
<circle r="0.5" transform="matrix(1 0 0 -1 19.5 58.5)" fill="#C4C4C4"/>
<circle r="0.5" transform="matrix(1 0 0 -1 26.5 58.5)" fill="#C4C4C4"/>
<circle r="0.5" transform="matrix(1 0 0 -1 33.5 58.5)" fill="#C4C4C4"/>
<circle r="0.5" transform="matrix(1 0 0 -1 40.5 58.5)" fill="#C4C4C4"/>
<circle r="0.5" transform="matrix(1 0 0 -1 47.5 58.5)" fill="#C4C4C4"/>
<circle r="0.5" transform="matrix(1 0 0 -1 54.5 58.5)" fill="#C4C4C4"/>
<circle r="0.5" transform="matrix(1 0 0 -1 61.5 58.5)" fill="#C4C4C4"/>
<circle r="0.5" transform="matrix(1 0 0 -1 68.5 58.5)" fill="#C4C4C4"/>
<circle r="0.5" transform="matrix(1 0 0 -1 75.5 58.5)" fill="#C4C4C4"/>
<circle r="0.5" transform="matrix(1 0 0 -1 82.5 58.5)" fill="#C4C4C4"/>
<circle r="0.5" transform="matrix(1 0 0 -1 89.5 58.5)" fill="#C4C4C4"/>
<circle r="0.5" transform="matrix(1 0 0 -1 96.5 58.5)" fill="#C4C4C4"/>
<circle r="0.5" transform="matrix(1 0 0 -1 103.5 58.5)" fill="#C4C4C4"/>
<circle r="0.5" transform="matrix(1 0 0 -1 110.5 58.5)" fill="#C4C4C4"/>
<circle r="0.5" transform="matrix(1 0 0 -1 117.5 58.5)" fill="#C4C4C4"/>
<circle r="0.5" transform="matrix(1 0 0 -1 124.5 58.5)" fill="#C4C4C4"/>
<circle r="0.5" transform="matrix(1 0 0 -1 131.5 58.5)" fill="#C4C4C4"/>
<circle r="0.5" transform="matrix(1 0 0 -1 138.5 58.5)" fill="#C4C4C4"/>
<circle r="0.5" transform="matrix(1 0 0 -1 145.5 58.5)" fill="#C4C4C4"/>
<circle r="0.5" transform="matrix(1 0 0 -1 152.5 58.5)" fill="#C4C4C4"/>
<circle r="0.5" transform="matrix(1 0 0 -1 159.5 58.5)" fill="#C4C4C4"/>
<circle r="0.5" transform="matrix(1 0 0 -1 166.5 58.5)" fill="#C4C4C4"/>
<circle r="0.5" transform="matrix(1 0 0 -1 173.5 58.5)" fill="#C4C4C4"/>
<circle r="0.5" transform="matrix(1 0 0 -1 180.5 58.5)" fill="#C4C4C4"/>
<circle r="0.5" transform="matrix(1 0 0 -1 187.5 58.5)" fill="#C4C4C4"/>
<circle r="0.5" transform="matrix(1 0 0 -1 194.5 58.5)" fill="#C4C4C4"/>
<circle r="0.5" transform="matrix(1 0 0 -1 201.5 58.5)" fill="#C4C4C4"/>
<circle r="0.5" transform="matrix(1 0 0 -1 208.5 58.5)" fill="#C4C4C4"/>
<circle r="0.5" transform="matrix(1 0 0 -1 215.5 58.5)" fill="#C4C4C4"/>
<circle r="0.5" transform="matrix(1 0 0 -1 222.5 58.5)" fill="#C4C4C4"/>
<circle r="0.5" transform="matrix(1 0 0 -1 229.5 58.5)" fill="#C4C4C4"/>
<circle r="0.5" transform="matrix(1 0 0 -1 236.5 58.5)" fill="#C4C4C4"/>
<circle r="0.5" transform="matrix(1 0 0 -1 243.5 58.5)" fill="#C4C4C4"/>
<circle r="0.5" transform="matrix(1 0 0 -1 250.5 58.5)" fill="#C4C4C4"/>
<circle r="0.5" transform="matrix(1 0 0 -1 257.5 58.5)" fill="#C4C4C4"/>
<circle r="0.5" transform="matrix(1 0 0 -1 264.5 58.5)" fill="#C4C4C4"/>
<circle r="0.5" transform="matrix(1 0 0 -1 271.5 58.5)" fill="#C4C4C4"/>
<circle r="0.5" transform="matrix(1 0 0 -1 278.5 58.5)" fill="#C4C4C4"/>
<circle r="0.5" transform="matrix(1 0 0 -1 285.5 58.5)" fill="#C4C4C4"/>
<circle r="0.5" transform="matrix(1 0 0 -1 292.5 58.5)" fill="#C4C4C4"/>
<circle r="0.5" transform="matrix(1 0 0 -1 299.5 58.5)" fill="#C4C4C4"/>
<circle r="0.5" transform="matrix(1 0 0 -1 306.5 58.5)" fill="#C4C4C4"/>
<circle r="0.5" transform="matrix(1 0 0 -1 313.5 58.5)" fill="#C4C4C4"/>
<circle r="0.5" transform="matrix(1 0 0 -1 320.5 58.5)" fill="#C4C4C4"/>
<circle r="0.5" transform="matrix(1 0 0 -1 327.5 58.5)" fill="#C4C4C4"/>
<circle r="0.5" transform="matrix(1 0 0 -1 334.5 58.5)" fill="#C4C4C4"/>
<circle r="0.5" transform="matrix(1 0 0 -1 341.5 58.5)" fill="#C4C4C4"/>
<circle r="0.5" transform="matrix(1 0 0 -1 348.5 58.5)" fill="#C4C4C4"/>
<circle r="0.5" transform="matrix(1 0 0 -1 355.5 58.5)" fill="#C4C4C4"/>
<circle r="0.5" transform="matrix(1 0 0 -1 362.5 58.5)" fill="#C4C4C4"/>
<circle r="0.5" transform="matrix(1 0 0 -1 369.5 58.5)" fill="#C4C4C4"/>
<circle r="0.5" transform="matrix(1 0 0 -1 376.5 58.5)" fill="#C4C4C4"/>
<circle r="0.5" transform="matrix(1 0 0 -1 383.5 58.5)" fill="#C4C4C4"/>
<circle r="0.5" transform="matrix(1 0 0 -1 390.5 58.5)" fill="#C4C4C4"/>
<circle r="0.5" transform="matrix(1 0 0 -1 397.5 58.5)" fill="#C4C4C4"/>
</g>
<g opacity="0.3">
<circle r="0.75" transform="matrix(1 0 0 -1 5.25 53.25)" fill="#C4C4C4"/>
<circle r="0.75" transform="matrix(1 0 0 -1 11.75 53.25)" fill="#C4C4C4"/>
<circle r="0.75" transform="matrix(1 0 0 -1 18.25 53.25)" fill="#C4C4C4"/>
<circle r="0.75" transform="matrix(1 0 0 -1 24.75 53.25)" fill="#C4C4C4"/>
<circle r="0.75" transform="matrix(1 0 0 -1 31.25 53.25)" fill="#C4C4C4"/>
<circle r="0.75" transform="matrix(1 0 0 -1 37.75 53.25)" fill="#C4C4C4"/>
<circle r="0.75" transform="matrix(1 0 0 -1 44.25 53.25)" fill="#C4C4C4"/>
<circle r="0.75" transform="matrix(1 0 0 -1 50.75 53.25)" fill="#C4C4C4"/>
<circle r="0.75" transform="matrix(1 0 0 -1 57.25 53.25)" fill="#C4C4C4"/>
<circle r="0.75" transform="matrix(1 0 0 -1 63.75 53.25)" fill="#C4C4C4"/>
<circle r="0.75" transform="matrix(1 0 0 -1 70.25 53.25)" fill="#C4C4C4"/>
<circle r="0.75" transform="matrix(1 0 0 -1 76.75 53.25)" fill="#C4C4C4"/>
<circle r="0.75" transform="matrix(1 0 0 -1 83.25 53.25)" fill="#C4C4C4"/>
<circle r="0.75" transform="matrix(1 0 0 -1 89.75 53.25)" fill="#C4C4C4"/>
<circle r="0.75" transform="matrix(1 0 0 -1 96.25 53.25)" fill="#C4C4C4"/>
<circle r="0.75" transform="matrix(1 0 0 -1 102.75 53.25)" fill="#C4C4C4"/>
<circle r="0.75" transform="matrix(1 0 0 -1 109.25 53.25)" fill="#C4C4C4"/>
<circle r="0.75" transform="matrix(1 0 0 -1 115.75 53.25)" fill="#C4C4C4"/>
<circle r="0.75" transform="matrix(1 0 0 -1 122.25 53.25)" fill="#C4C4C4"/>
<circle r="0.75" transform="matrix(1 0 0 -1 128.75 53.25)" fill="#C4C4C4"/>
<circle r="0.75" transform="matrix(1 0 0 -1 135.25 53.25)" fill="#C4C4C4"/>
<circle r="0.75" transform="matrix(1 0 0 -1 141.75 53.25)" fill="#C4C4C4"/>
<circle r="0.75" transform="matrix(1 0 0 -1 148.25 53.25)" fill="#C4C4C4"/>
<circle r="0.75" transform="matrix(1 0 0 -1 154.75 53.25)" fill="#C4C4C4"/>
<circle r="0.75" transform="matrix(1 0 0 -1 161.25 53.25)" fill="#C4C4C4"/>
<circle r="0.75" transform="matrix(1 0 0 -1 167.75 53.25)" fill="#C4C4C4"/>
<circle r="0.75" transform="matrix(1 0 0 -1 174.25 53.25)" fill="#C4C4C4"/>
<circle r="0.75" transform="matrix(1 0 0 -1 180.75 53.25)" fill="#C4C4C4"/>
<circle r="0.75" transform="matrix(1 0 0 -1 187.25 53.25)" fill="#C4C4C4"/>
<circle r="0.75" transform="matrix(1 0 0 -1 193.75 53.25)" fill="#C4C4C4"/>
<circle r="0.75" transform="matrix(1 0 0 -1 200.25 53.25)" fill="#C4C4C4"/>
<circle r="0.75" transform="matrix(1 0 0 -1 206.75 53.25)" fill="#C4C4C4"/>
<circle r="0.75" transform="matrix(1 0 0 -1 213.25 53.25)" fill="#C4C4C4"/>
<circle r="0.75" transform="matrix(1 0 0 -1 219.75 53.25)" fill="#C4C4C4"/>
<circle r="0.75" transform="matrix(1 0 0 -1 226.25 53.25)" fill="#C4C4C4"/>
<circle r="0.75" transform="matrix(1 0 0 -1 232.75 53.25)" fill="#C4C4C4"/>
<circle r="0.75" transform="matrix(1 0 0 -1 239.25 53.25)" fill="#C4C4C4"/>
<circle r="0.75" transform="matrix(1 0 0 -1 245.75 53.25)" fill="#C4C4C4"/>
<circle r="0.75" transform="matrix(1 0 0 -1 252.25 53.25)" fill="#C4C4C4"/>
<circle r="0.75" transform="matrix(1 0 0 -1 258.75 53.25)" fill="#C4C4C4"/>
<circle r="0.75" transform="matrix(1 0 0 -1 265.25 53.25)" fill="#C4C4C4"/>
<circle r="0.75" transform="matrix(1 0 0 -1 271.75 53.25)" fill="#C4C4C4"/>
<circle r="0.75" transform="matrix(1 0 0 -1 278.25 53.25)" fill="#C4C4C4"/>
<circle r="0.75" transform="matrix(1 0 0 -1 284.75 53.25)" fill="#C4C4C4"/>
<circle r="0.75" transform="matrix(1 0 0 -1 291.25 53.25)" fill="#C4C4C4"/>
<circle r="0.75" transform="matrix(1 0 0 -1 297.75 53.25)" fill="#C4C4C4"/>
<circle r="0.75" transform="matrix(1 0 0 -1 304.25 53.25)" fill="#C4C4C4"/>
<circle r="0.75" transform="matrix(1 0 0 -1 310.75 53.25)" fill="#C4C4C4"/>
<circle r="0.75" transform="matrix(1 0 0 -1 317.25 53.25)" fill="#C4C4C4"/>
<circle r="0.75" transform="matrix(1 0 0 -1 323.75 53.25)" fill="#C4C4C4"/>
<circle r="0.75" transform="matrix(1 0 0 -1 330.25 53.25)" fill="#C4C4C4"/>
<circle r="0.75" transform="matrix(1 0 0 -1 336.75 53.25)" fill="#C4C4C4"/>
<circle r="0.75" transform="matrix(1 0 0 -1 343.25 53.25)" fill="#C4C4C4"/>
<circle r="0.75" transform="matrix(1 0 0 -1 349.75 53.25)" fill="#C4C4C4"/>
<circle r="0.75" transform="matrix(1 0 0 -1 356.25 53.25)" fill="#C4C4C4"/>
<circle r="0.75" transform="matrix(1 0 0 -1 362.75 53.25)" fill="#C4C4C4"/>
<circle r="0.75" transform="matrix(1 0 0 -1 369.25 53.25)" fill="#C4C4C4"/>
<circle r="0.75" transform="matrix(1 0 0 -1 375.75 53.25)" fill="#C4C4C4"/>
<circle r="0.75" transform="matrix(1 0 0 -1 382.25 53.25)" fill="#C4C4C4"/>
<circle r="0.75" transform="matrix(1 0 0 -1 388.75 53.25)" fill="#C4C4C4"/>
<circle r="0.75" transform="matrix(1 0 0 -1 395.25 53.25)" fill="#C4C4C4"/>
</g>
<g opacity="0.3">
<circle r="1" transform="matrix(1 0 0 -1 6 47.5)" fill="#C4C4C4"/>
<circle r="1" transform="matrix(1 0 0 -1 13 47.5)" fill="#C4C4C4"/>
<circle r="1" transform="matrix(1 0 0 -1 20 47.5)" fill="#C4C4C4"/>
<circle r="1" transform="matrix(1 0 0 -1 27 47.5)" fill="#C4C4C4"/>
<circle r="1" transform="matrix(1 0 0 -1 34 47.5)" fill="#C4C4C4"/>
<circle r="1" transform="matrix(1 0 0 -1 41 47.5)" fill="#C4C4C4"/>
<circle r="1" transform="matrix(1 0 0 -1 48 47.5)" fill="#C4C4C4"/>
<circle r="1" transform="matrix(1 0 0 -1 55 47.5)" fill="#C4C4C4"/>
<circle r="1" transform="matrix(1 0 0 -1 62 47.5)" fill="#C4C4C4"/>
<circle r="1" transform="matrix(1 0 0 -1 69 47.5)" fill="#C4C4C4"/>
<circle r="1" transform="matrix(1 0 0 -1 76 47.5)" fill="#C4C4C4"/>
<circle r="1" transform="matrix(1 0 0 -1 83 47.5)" fill="#C4C4C4"/>
<circle r="1" transform="matrix(1 0 0 -1 90 47.5)" fill="#C4C4C4"/>
<circle r="1" transform="matrix(1 0 0 -1 97 47.5)" fill="#C4C4C4"/>
<circle r="1" transform="matrix(1 0 0 -1 104 47.5)" fill="#C4C4C4"/>
<circle r="1" transform="matrix(1 0 0 -1 111 47.5)" fill="#C4C4C4"/>
<circle r="1" transform="matrix(1 0 0 -1 118 47.5)" fill="#C4C4C4"/>
<circle r="1" transform="matrix(1 0 0 -1 125 47.5)" fill="#C4C4C4"/>
<circle r="1" transform="matrix(1 0 0 -1 132 47.5)" fill="#C4C4C4"/>
<circle r="1" transform="matrix(1 0 0 -1 139 47.5)" fill="#C4C4C4"/>
<circle r="1" transform="matrix(1 0 0 -1 146 47.5)" fill="#C4C4C4"/>
<circle r="1" transform="matrix(1 0 0 -1 153 47.5)" fill="#C4C4C4"/>
<circle r="1" transform="matrix(1 0 0 -1 160 47.5)" fill="#C4C4C4"/>
<circle r="1" transform="matrix(1 0 0 -1 167 47.5)" fill="#C4C4C4"/>
<circle r="1" transform="matrix(1 0 0 -1 174 47.5)" fill="#C4C4C4"/>
<circle r="1" transform="matrix(1 0 0 -1 181 47.5)" fill="#C4C4C4"/>
<circle r="1" transform="matrix(1 0 0 -1 188 47.5)" fill="#C4C4C4"/>
<circle r="1" transform="matrix(1 0 0 -1 195 47.5)" fill="#C4C4C4"/>
<circle r="1" transform="matrix(1 0 0 -1 202 47.5)" fill="#C4C4C4"/>
<circle r="1" transform="matrix(1 0 0 -1 209 47.5)" fill="#C4C4C4"/>
<circle r="1" transform="matrix(1 0 0 -1 216 47.5)" fill="#C4C4C4"/>
<circle r="1" transform="matrix(1 0 0 -1 223 47.5)" fill="#C4C4C4"/>
<circle r="1" transform="matrix(1 0 0 -1 230 47.5)" fill="#C4C4C4"/>
<circle r="1" transform="matrix(1 0 0 -1 237 47.5)" fill="#C4C4C4"/>
<circle r="1" transform="matrix(1 0 0 -1 244 47.5)" fill="#C4C4C4"/>
<circle r="1" transform="matrix(1 0 0 -1 251 47.5)" fill="#C4C4C4"/>
<circle r="1" transform="matrix(1 0 0 -1 258 47.5)" fill="#C4C4C4"/>
<circle r="1" transform="matrix(1 0 0 -1 265 47.5)" fill="#C4C4C4"/>
<circle r="1" transform="matrix(1 0 0 -1 272 47.5)" fill="#C4C4C4"/>
<circle r="1" transform="matrix(1 0 0 -1 279 47.5)" fill="#C4C4C4"/>
<circle r="1" transform="matrix(1 0 0 -1 286 47.5)" fill="#C4C4C4"/>
<circle r="1" transform="matrix(1 0 0 -1 293 47.5)" fill="#C4C4C4"/>
<circle r="1" transform="matrix(1 0 0 -1 300 47.5)" fill="#C4C4C4"/>
<circle r="1" transform="matrix(1 0 0 -1 307 47.5)" fill="#C4C4C4"/>
<circle r="1" transform="matrix(1 0 0 -1 314 47.5)" fill="#C4C4C4"/>
<circle r="1" transform="matrix(1 0 0 -1 321 47.5)" fill="#C4C4C4"/>
<circle r="1" transform="matrix(1 0 0 -1 328 47.5)" fill="#C4C4C4"/>
<circle r="1" transform="matrix(1 0 0 -1 335 47.5)" fill="#C4C4C4"/>
<circle r="1" transform="matrix(1 0 0 -1 342 47.5)" fill="#C4C4C4"/>
<circle r="1" transform="matrix(1 0 0 -1 349 47.5)" fill="#C4C4C4"/>
<circle r="1" transform="matrix(1 0 0 -1 356 47.5)" fill="#C4C4C4"/>
<circle r="1" transform="matrix(1 0 0 -1 363 47.5)" fill="#C4C4C4"/>
<circle r="1" transform="matrix(1 0 0 -1 370 47.5)" fill="#C4C4C4"/>
<circle r="1" transform="matrix(1 0 0 -1 377 47.5)" fill="#C4C4C4"/>
<circle r="1" transform="matrix(1 0 0 -1 384 47.5)" fill="#C4C4C4"/>
<circle r="1" transform="matrix(1 0 0 -1 391 47.5)" fill="#C4C4C4"/>
<circle r="1" transform="matrix(1 0 0 -1 398 47.5)" fill="#C4C4C4"/>
</g>
<g opacity="0.3">
<circle r="1.25" transform="matrix(1 0 0 -1 -0.75 41.25)" fill="#C4C4C4"/>
<circle r="1.25" transform="matrix(1 0 0 -1 5.75 41.25)" fill="#C4C4C4"/>
<circle r="1.25" transform="matrix(1 0 0 -1 12.25 41.25)" fill="#C4C4C4"/>
<circle r="1.25" transform="matrix(1 0 0 -1 18.75 41.25)" fill="#C4C4C4"/>
<circle r="1.25" transform="matrix(1 0 0 -1 25.25 41.25)" fill="#C4C4C4"/>
<circle r="1.25" transform="matrix(1 0 0 -1 31.75 41.25)" fill="#C4C4C4"/>
<circle r="1.25" transform="matrix(1 0 0 -1 38.25 41.25)" fill="#C4C4C4"/>
<circle r="1.25" transform="matrix(1 0 0 -1 44.75 41.25)" fill="#C4C4C4"/>
<circle r="1.25" transform="matrix(1 0 0 -1 51.25 41.25)" fill="#C4C4C4"/>
<circle r="1.25" transform="matrix(1 0 0 -1 57.75 41.25)" fill="#C4C4C4"/>
<circle r="1.25" transform="matrix(1 0 0 -1 64.25 41.25)" fill="#C4C4C4"/>
<circle r="1.25" transform="matrix(1 0 0 -1 70.75 41.25)" fill="#C4C4C4"/>
<circle r="1.25" transform="matrix(1 0 0 -1 77.25 41.25)" fill="#C4C4C4"/>
<circle r="1.25" transform="matrix(1 0 0 -1 83.75 41.25)" fill="#C4C4C4"/>
<circle r="1.25" transform="matrix(1 0 0 -1 90.25 41.25)" fill="#C4C4C4"/>
<circle r="1.25" transform="matrix(1 0 0 -1 96.75 41.25)" fill="#C4C4C4"/>
<circle r="1.25" transform="matrix(1 0 0 -1 103.25 41.25)" fill="#C4C4C4"/>
<circle r="1.25" transform="matrix(1 0 0 -1 109.75 41.25)" fill="#C4C4C4"/>
<circle r="1.25" transform="matrix(1 0 0 -1 116.25 41.25)" fill="#C4C4C4"/>
<circle r="1.25" transform="matrix(1 0 0 -1 122.75 41.25)" fill="#C4C4C4"/>
<circle r="1.25" transform="matrix(1 0 0 -1 129.25 41.25)" fill="#C4C4C4"/>
<circle r="1.25" transform="matrix(1 0 0 -1 135.75 41.25)" fill="#C4C4C4"/>
<circle r="1.25" transform="matrix(1 0 0 -1 142.25 41.25)" fill="#C4C4C4"/>
<circle r="1.25" transform="matrix(1 0 0 -1 148.75 41.25)" fill="#C4C4C4"/>
<circle r="1.25" transform="matrix(1 0 0 -1 155.25 41.25)" fill="#C4C4C4"/>
<circle r="1.25" transform="matrix(1 0 0 -1 161.75 41.25)" fill="#C4C4C4"/>
<circle r="1.25" transform="matrix(1 0 0 -1 168.25 41.25)" fill="#C4C4C4"/>
<circle r="1.25" transform="matrix(1 0 0 -1 174.75 41.25)" fill="#C4C4C4"/>
<circle r="1.25" transform="matrix(1 0 0 -1 181.25 41.25)" fill="#C4C4C4"/>
<circle r="1.25" transform="matrix(1 0 0 -1 187.75 41.25)" fill="#C4C4C4"/>
<circle r="1.25" transform="matrix(1 0 0 -1 194.25 41.25)" fill="#C4C4C4"/>
<circle r="1.25" transform="matrix(1 0 0 -1 200.75 41.25)" fill="#C4C4C4"/>
<circle r="1.25" transform="matrix(1 0 0 -1 207.25 41.25)" fill="#C4C4C4"/>
<circle r="1.25" transform="matrix(1 0 0 -1 213.75 41.25)" fill="#C4C4C4"/>
<circle r="1.25" transform="matrix(1 0 0 -1 220.25 41.25)" fill="#C4C4C4"/>
<circle r="1.25" transform="matrix(1 0 0 -1 226.75 41.25)" fill="#C4C4C4"/>
<circle r="1.25" transform="matrix(1 0 0 -1 233.25 41.25)" fill="#C4C4C4"/>
<circle r="1.25" transform="matrix(1 0 0 -1 239.75 41.25)" fill="#C4C4C4"/>
<circle r="1.25" transform="matrix(1 0 0 -1 246.25 41.25)" fill="#C4C4C4"/>
<circle r="1.25" transform="matrix(1 0 0 -1 252.75 41.25)" fill="#C4C4C4"/>
<circle r="1.25" transform="matrix(1 0 0 -1 259.25 41.25)" fill="#C4C4C4"/>
<circle r="1.25" transform="matrix(1 0 0 -1 265.75 41.25)" fill="#C4C4C4"/>
<circle r="1.25" transform="matrix(1 0 0 -1 272.25 41.25)" fill="#C4C4C4"/>
<circle r="1.25" transform="matrix(1 0 0 -1 278.75 41.25)" fill="#C4C4C4"/>
<circle r="1.25" transform="matrix(1 0 0 -1 285.25 41.25)" fill="#C4C4C4"/>
<circle r="1.25" transform="matrix(1 0 0 -1 291.75 41.25)" fill="#C4C4C4"/>
<circle r="1.25" transform="matrix(1 0 0 -1 298.25 41.25)" fill="#C4C4C4"/>
<circle r="1.25" transform="matrix(1 0 0 -1 304.75 41.25)" fill="#C4C4C4"/>
<circle r="1.25" transform="matrix(1 0 0 -1 311.25 41.25)" fill="#C4C4C4"/>
<circle r="1.25" transform="matrix(1 0 0 -1 317.75 41.25)" fill="#C4C4C4"/>
<circle r="1.25" transform="matrix(1 0 0 -1 324.25 41.25)" fill="#C4C4C4"/>
<circle r="1.25" transform="matrix(1 0 0 -1 330.75 41.25)" fill="#C4C4C4"/>
<circle r="1.25" transform="matrix(1 0 0 -1 337.25 41.25)" fill="#C4C4C4"/>
<circle r="1.25" transform="matrix(1 0 0 -1 343.75 41.25)" fill="#C4C4C4"/>
<circle r="1.25" transform="matrix(1 0 0 -1 350.25 41.25)" fill="#C4C4C4"/>
<circle r="1.25" transform="matrix(1 0 0 -1 356.75 41.25)" fill="#C4C4C4"/>
<circle r="1.25" transform="matrix(1 0 0 -1 363.25 41.25)" fill="#C4C4C4"/>
<circle r="1.25" transform="matrix(1 0 0 -1 369.75 41.25)" fill="#C4C4C4"/>
<circle r="1.25" transform="matrix(1 0 0 -1 376.25 41.25)" fill="#C4C4C4"/>
<circle r="1.25" transform="matrix(1 0 0 -1 382.75 41.25)" fill="#C4C4C4"/>
<circle r="1.25" transform="matrix(1 0 0 -1 389.25 41.25)" fill="#C4C4C4"/>
<circle r="1.25" transform="matrix(1 0 0 -1 395.75 41.25)" fill="#C4C4C4"/>
</g>
<g opacity="0.3">
<circle r="1.5" transform="matrix(1 0 0 -1 -0.5 34.5)" fill="#C4C4C4"/>
<circle r="1.5" transform="matrix(1 0 0 -1 6.5 34.5)" fill="#C4C4C4"/>
<circle r="1.5" transform="matrix(1 0 0 -1 13.5 34.5)" fill="#C4C4C4"/>
<circle r="1.5" transform="matrix(1 0 0 -1 20.5 34.5)" fill="#C4C4C4"/>
<circle r="1.5" transform="matrix(1 0 0 -1 27.5 34.5)" fill="#C4C4C4"/>
<circle r="1.5" transform="matrix(1 0 0 -1 34.5 34.5)" fill="#C4C4C4"/>
<circle r="1.5" transform="matrix(1 0 0 -1 41.5 34.5)" fill="#C4C4C4"/>
<circle r="1.5" transform="matrix(1 0 0 -1 48.5 34.5)" fill="#C4C4C4"/>
<circle r="1.5" transform="matrix(1 0 0 -1 55.5 34.5)" fill="#C4C4C4"/>
<circle r="1.5" transform="matrix(1 0 0 -1 62.5 34.5)" fill="#C4C4C4"/>
<circle r="1.5" transform="matrix(1 0 0 -1 69.5 34.5)" fill="#C4C4C4"/>
<circle r="1.5" transform="matrix(1 0 0 -1 76.5 34.5)" fill="#C4C4C4"/>
<circle r="1.5" transform="matrix(1 0 0 -1 83.5 34.5)" fill="#C4C4C4"/>
<circle r="1.5" transform="matrix(1 0 0 -1 90.5 34.5)" fill="#C4C4C4"/>
<circle r="1.5" transform="matrix(1 0 0 -1 97.5 34.5)" fill="#C4C4C4"/>
<circle r="1.5" transform="matrix(1 0 0 -1 104.5 34.5)" fill="#C4C4C4"/>
<circle r="1.5" transform="matrix(1 0 0 -1 111.5 34.5)" fill="#C4C4C4"/>
<circle r="1.5" transform="matrix(1 0 0 -1 118.5 34.5)" fill="#C4C4C4"/>
<circle r="1.5" transform="matrix(1 0 0 -1 125.5 34.5)" fill="#C4C4C4"/>
<circle r="1.5" transform="matrix(1 0 0 -1 132.5 34.5)" fill="#C4C4C4"/>
<circle r="1.5" transform="matrix(1 0 0 -1 139.5 34.5)" fill="#C4C4C4"/>
<circle r="1.5" transform="matrix(1 0 0 -1 146.5 34.5)" fill="#C4C4C4"/>
<circle r="1.5" transform="matrix(1 0 0 -1 153.5 34.5)" fill="#C4C4C4"/>
<circle r="1.5" transform="matrix(1 0 0 -1 160.5 34.5)" fill="#C4C4C4"/>
<circle r="1.5" transform="matrix(1 0 0 -1 167.5 34.5)" fill="#C4C4C4"/>
<circle r="1.5" transform="matrix(1 0 0 -1 174.5 34.5)" fill="#C4C4C4"/>
<circle r="1.5" transform="matrix(1 0 0 -1 181.5 34.5)" fill="#C4C4C4"/>
<circle r="1.5" transform="matrix(1 0 0 -1 188.5 34.5)" fill="#C4C4C4"/>
<circle r="1.5" transform="matrix(1 0 0 -1 195.5 34.5)" fill="#C4C4C4"/>
<circle r="1.5" transform="matrix(1 0 0 -1 202.5 34.5)" fill="#C4C4C4"/>
<circle r="1.5" transform="matrix(1 0 0 -1 209.5 34.5)" fill="#C4C4C4"/>
<circle r="1.5" transform="matrix(1 0 0 -1 216.5 34.5)" fill="#C4C4C4"/>
<circle r="1.5" transform="matrix(1 0 0 -1 223.5 34.5)" fill="#C4C4C4"/>
<circle r="1.5" transform="matrix(1 0 0 -1 230.5 34.5)" fill="#C4C4C4"/>
<circle r="1.5" transform="matrix(1 0 0 -1 237.5 34.5)" fill="#C4C4C4"/>
<circle r="1.5" transform="matrix(1 0 0 -1 244.5 34.5)" fill="#C4C4C4"/>
<circle r="1.5" transform="matrix(1 0 0 -1 251.5 34.5)" fill="#C4C4C4"/>
<circle r="1.5" transform="matrix(1 0 0 -1 258.5 34.5)" fill="#C4C4C4"/>
<circle r="1.5" transform="matrix(1 0 0 -1 265.5 34.5)" fill="#C4C4C4"/>
<circle r="1.5" transform="matrix(1 0 0 -1 272.5 34.5)" fill="#C4C4C4"/>
<circle r="1.5" transform="matrix(1 0 0 -1 279.5 34.5)" fill="#C4C4C4"/>
<circle r="1.5" transform="matrix(1 0 0 -1 286.5 34.5)" fill="#C4C4C4"/>
<circle r="1.5" transform="matrix(1 0 0 -1 293.5 34.5)" fill="#C4C4C4"/>
<circle r="1.5" transform="matrix(1 0 0 -1 300.5 34.5)" fill="#C4C4C4"/>
<circle r="1.5" transform="matrix(1 0 0 -1 307.5 34.5)" fill="#C4C4C4"/>
<circle r="1.5" transform="matrix(1 0 0 -1 314.5 34.5)" fill="#C4C4C4"/>
<circle r="1.5" transform="matrix(1 0 0 -1 321.5 34.5)" fill="#C4C4C4"/>
<circle r="1.5" transform="matrix(1 0 0 -1 328.5 34.5)" fill="#C4C4C4"/>
<circle r="1.5" transform="matrix(1 0 0 -1 335.5 34.5)" fill="#C4C4C4"/>
<circle r="1.5" transform="matrix(1 0 0 -1 342.5 34.5)" fill="#C4C4C4"/>
<circle r="1.5" transform="matrix(1 0 0 -1 349.5 34.5)" fill="#C4C4C4"/>
<circle r="1.5" transform="matrix(1 0 0 -1 356.5 34.5)" fill="#C4C4C4"/>
<circle r="1.5" transform="matrix(1 0 0 -1 363.5 34.5)" fill="#C4C4C4"/>
<circle r="1.5" transform="matrix(1 0 0 -1 370.5 34.5)" fill="#C4C4C4"/>
<circle r="1.5" transform="matrix(1 0 0 -1 377.5 34.5)" fill="#C4C4C4"/>
<circle r="1.5" transform="matrix(1 0 0 -1 384.5 34.5)" fill="#C4C4C4"/>
<circle r="1.5" transform="matrix(1 0 0 -1 391.5 34.5)" fill="#C4C4C4"/>
<circle r="1.5" transform="matrix(1 0 0 -1 398.5 34.5)" fill="#C4C4C4"/>
</g>
<g opacity="0.3">
<circle r="1.75" transform="matrix(1 0 0 -1 -0.25 27.25)" fill="#C4C4C4"/>
<circle r="1.75" transform="matrix(1 0 0 -1 6.25 27.25)" fill="#C4C4C4"/>
<circle r="1.75" transform="matrix(1 0 0 -1 12.75 27.25)" fill="#C4C4C4"/>
<circle r="1.75" transform="matrix(1 0 0 -1 19.25 27.25)" fill="#C4C4C4"/>
<circle r="1.75" transform="matrix(1 0 0 -1 25.75 27.25)" fill="#C4C4C4"/>
<circle r="1.75" transform="matrix(1 0 0 -1 32.25 27.25)" fill="#C4C4C4"/>
<circle r="1.75" transform="matrix(1 0 0 -1 38.75 27.25)" fill="#C4C4C4"/>
<circle r="1.75" transform="matrix(1 0 0 -1 45.25 27.25)" fill="#C4C4C4"/>
<circle r="1.75" transform="matrix(1 0 0 -1 51.75 27.25)" fill="#C4C4C4"/>
<circle r="1.75" transform="matrix(1 0 0 -1 58.25 27.25)" fill="#C4C4C4"/>
<circle r="1.75" transform="matrix(1 0 0 -1 64.75 27.25)" fill="#C4C4C4"/>
<circle r="1.75" transform="matrix(1 0 0 -1 71.25 27.25)" fill="#C4C4C4"/>
<circle r="1.75" transform="matrix(1 0 0 -1 77.75 27.25)" fill="#C4C4C4"/>
<circle r="1.75" transform="matrix(1 0 0 -1 84.25 27.25)" fill="#C4C4C4"/>
<circle r="1.75" transform="matrix(1 0 0 -1 90.75 27.25)" fill="#C4C4C4"/>
<circle r="1.75" transform="matrix(1 0 0 -1 97.25 27.25)" fill="#C4C4C4"/>
<circle r="1.75" transform="matrix(1 0 0 -1 103.75 27.25)" fill="#C4C4C4"/>
<circle r="1.75" transform="matrix(1 0 0 -1 110.25 27.25)" fill="#C4C4C4"/>
<circle r="1.75" transform="matrix(1 0 0 -1 116.75 27.25)" fill="#C4C4C4"/>
<circle r="1.75" transform="matrix(1 0 0 -1 123.25 27.25)" fill="#C4C4C4"/>
<circle r="1.75" transform="matrix(1 0 0 -1 129.75 27.25)" fill="#C4C4C4"/>
<circle r="1.75" transform="matrix(1 0 0 -1 136.25 27.25)" fill="#C4C4C4"/>
<circle r="1.75" transform="matrix(1 0 0 -1 142.75 27.25)" fill="#C4C4C4"/>
<circle r="1.75" transform="matrix(1 0 0 -1 149.25 27.25)" fill="#C4C4C4"/>
<circle r="1.75" transform="matrix(1 0 0 -1 155.75 27.25)" fill="#C4C4C4"/>
<circle r="1.75" transform="matrix(1 0 0 -1 162.25 27.25)" fill="#C4C4C4"/>
<circle r="1.75" transform="matrix(1 0 0 -1 168.75 27.25)" fill="#C4C4C4"/>
<circle r="1.75" transform="matrix(1 0 0 -1 175.25 27.25)" fill="#C4C4C4"/>
<circle r="1.75" transform="matrix(1 0 0 -1 181.75 27.25)" fill="#C4C4C4"/>
<circle r="1.75" transform="matrix(1 0 0 -1 188.25 27.25)" fill="#C4C4C4"/>
<circle r="1.75" transform="matrix(1 0 0 -1 194.75 27.25)" fill="#C4C4C4"/>
<circle r="1.75" transform="matrix(1 0 0 -1 201.25 27.25)" fill="#C4C4C4"/>
<circle r="1.75" transform="matrix(1 0 0 -1 207.75 27.25)" fill="#C4C4C4"/>
<circle r="1.75" transform="matrix(1 0 0 -1 214.25 27.25)" fill="#C4C4C4"/>
<circle r="1.75" transform="matrix(1 0 0 -1 220.75 27.25)" fill="#C4C4C4"/>
<circle r="1.75" transform="matrix(1 0 0 -1 227.25 27.25)" fill="#C4C4C4"/>
<circle r="1.75" transform="matrix(1 0 0 -1 233.75 27.25)" fill="#C4C4C4"/>
<circle r="1.75" transform="matrix(1 0 0 -1 240.25 27.25)" fill="#C4C4C4"/>
<circle r="1.75" transform="matrix(1 0 0 -1 246.75 27.25)" fill="#C4C4C4"/>
<circle r="1.75" transform="matrix(1 0 0 -1 253.25 27.25)" fill="#C4C4C4"/>
<circle r="1.75" transform="matrix(1 0 0 -1 259.75 27.25)" fill="#C4C4C4"/>
<circle r="1.75" transform="matrix(1 0 0 -1 266.25 27.25)" fill="#C4C4C4"/>
<circle r="1.75" transform="matrix(1 0 0 -1 272.75 27.25)" fill="#C4C4C4"/>
<circle r="1.75" transform="matrix(1 0 0 -1 279.25 27.25)" fill="#C4C4C4"/>
<circle r="1.75" transform="matrix(1 0 0 -1 285.75 27.25)" fill="#C4C4C4"/>
<circle r="1.75" transform="matrix(1 0 0 -1 292.25 27.25)" fill="#C4C4C4"/>
<circle r="1.75" transform="matrix(1 0 0 -1 298.75 27.25)" fill="#C4C4C4"/>
<circle r="1.75" transform="matrix(1 0 0 -1 305.25 27.25)" fill="#C4C4C4"/>
<circle r="1.75" transform="matrix(1 0 0 -1 311.75 27.25)" fill="#C4C4C4"/>
<circle r="1.75" transform="matrix(1 0 0 -1 318.25 27.25)" fill="#C4C4C4"/>
<circle r="1.75" transform="matrix(1 0 0 -1 324.75 27.25)" fill="#C4C4C4"/>
<circle r="1.75" transform="matrix(1 0 0 -1 331.25 27.25)" fill="#C4C4C4"/>
<circle r="1.75" transform="matrix(1 0 0 -1 337.75 27.25)" fill="#C4C4C4"/>
<circle r="1.75" transform="matrix(1 0 0 -1 344.25 27.25)" fill="#C4C4C4"/>
<circle r="1.75" transform="matrix(1 0 0 -1 350.75 27.25)" fill="#C4C4C4"/>
<circle r="1.75" transform="matrix(1 0 0 -1 357.25 27.25)" fill="#C4C4C4"/>
<circle r="1.75" transform="matrix(1 0 0 -1 363.75 27.25)" fill="#C4C4C4"/>
<circle r="1.75" transform="matrix(1 0 0 -1 370.25 27.25)" fill="#C4C4C4"/>
<circle r="1.75" transform="matrix(1 0 0 -1 376.75 27.25)" fill="#C4C4C4"/>
<circle r="1.75" transform="matrix(1 0 0 -1 383.25 27.25)" fill="#C4C4C4"/>
<circle r="1.75" transform="matrix(1 0 0 -1 389.75 27.25)" fill="#C4C4C4"/>
<circle r="1.75" transform="matrix(1 0 0 -1 396.25 27.25)" fill="#C4C4C4"/>
</g>
<g opacity="0.3">
<circle r="2" transform="matrix(1 0 0 -1 0 19.5)" fill="#C4C4C4"/>
<circle r="2" transform="matrix(1 0 0 -1 7 19.5)" fill="#C4C4C4"/>
<circle r="2" transform="matrix(1 0 0 -1 14 19.5)" fill="#C4C4C4"/>
<circle r="2" transform="matrix(1 0 0 -1 21 19.5)" fill="#C4C4C4"/>
<circle r="2" transform="matrix(1 0 0 -1 28 19.5)" fill="#C4C4C4"/>
<circle r="2" transform="matrix(1 0 0 -1 35 19.5)" fill="#C4C4C4"/>
<circle r="2" transform="matrix(1 0 0 -1 42 19.5)" fill="#C4C4C4"/>
<circle r="2" transform="matrix(1 0 0 -1 49 19.5)" fill="#C4C4C4"/>
<circle r="2" transform="matrix(1 0 0 -1 56 19.5)" fill="#C4C4C4"/>
<circle r="2" transform="matrix(1 0 0 -1 63 19.5)" fill="#C4C4C4"/>
<circle r="2" transform="matrix(1 0 0 -1 70 19.5)" fill="#C4C4C4"/>
<circle r="2" transform="matrix(1 0 0 -1 77 19.5)" fill="#C4C4C4"/>
<circle r="2" transform="matrix(1 0 0 -1 84 19.5)" fill="#C4C4C4"/>
<circle r="2" transform="matrix(1 0 0 -1 91 19.5)" fill="#C4C4C4"/>
<circle r="2" transform="matrix(1 0 0 -1 98 19.5)" fill="#C4C4C4"/>
<circle r="2" transform="matrix(1 0 0 -1 105 19.5)" fill="#C4C4C4"/>
<circle r="2" transform="matrix(1 0 0 -1 112 19.5)" fill="#C4C4C4"/>
<circle r="2" transform="matrix(1 0 0 -1 119 19.5)" fill="#C4C4C4"/>
<circle r="2" transform="matrix(1 0 0 -1 126 19.5)" fill="#C4C4C4"/>
<circle r="2" transform="matrix(1 0 0 -1 133 19.5)" fill="#C4C4C4"/>
<circle r="2" transform="matrix(1 0 0 -1 140 19.5)" fill="#C4C4C4"/>
<circle r="2" transform="matrix(1 0 0 -1 147 19.5)" fill="#C4C4C4"/>
<circle r="2" transform="matrix(1 0 0 -1 154 19.5)" fill="#C4C4C4"/>
<circle r="2" transform="matrix(1 0 0 -1 161 19.5)" fill="#C4C4C4"/>
<circle r="2" transform="matrix(1 0 0 -1 168 19.5)" fill="#C4C4C4"/>
<circle r="2" transform="matrix(1 0 0 -1 175 19.5)" fill="#C4C4C4"/>
<circle r="2" transform="matrix(1 0 0 -1 182 19.5)" fill="#C4C4C4"/>
<circle r="2" transform="matrix(1 0 0 -1 189 19.5)" fill="#C4C4C4"/>
<circle r="2" transform="matrix(1 0 0 -1 196 19.5)" fill="#C4C4C4"/>
<circle r="2" transform="matrix(1 0 0 -1 203 19.5)" fill="#C4C4C4"/>
<circle r="2" transform="matrix(1 0 0 -1 210 19.5)" fill="#C4C4C4"/>
<circle r="2" transform="matrix(1 0 0 -1 217 19.5)" fill="#C4C4C4"/>
<circle r="2" transform="matrix(1 0 0 -1 224 19.5)" fill="#C4C4C4"/>
<circle r="2" transform="matrix(1 0 0 -1 231 19.5)" fill="#C4C4C4"/>
<circle r="2" transform="matrix(1 0 0 -1 238 19.5)" fill="#C4C4C4"/>
<circle r="2" transform="matrix(1 0 0 -1 245 19.5)" fill="#C4C4C4"/>
<circle r="2" transform="matrix(1 0 0 -1 252 19.5)" fill="#C4C4C4"/>
<circle r="2" transform="matrix(1 0 0 -1 259 19.5)" fill="#C4C4C4"/>
<circle r="2" transform="matrix(1 0 0 -1 266 19.5)" fill="#C4C4C4"/>
<circle r="2" transform="matrix(1 0 0 -1 273 19.5)" fill="#C4C4C4"/>
<circle r="2" transform="matrix(1 0 0 -1 280 19.5)" fill="#C4C4C4"/>
<circle r="2" transform="matrix(1 0 0 -1 287 19.5)" fill="#C4C4C4"/>
<circle r="2" transform="matrix(1 0 0 -1 294 19.5)" fill="#C4C4C4"/>
<circle r="2" transform="matrix(1 0 0 -1 301 19.5)" fill="#C4C4C4"/>
<circle r="2" transform="matrix(1 0 0 -1 308 19.5)" fill="#C4C4C4"/>
<circle r="2" transform="matrix(1 0 0 -1 315 19.5)" fill="#C4C4C4"/>
<circle r="2" transform="matrix(1 0 0 -1 322 19.5)" fill="#C4C4C4"/>
<circle r="2" transform="matrix(1 0 0 -1 329 19.5)" fill="#C4C4C4"/>
<circle r="2" transform="matrix(1 0 0 -1 336 19.5)" fill="#C4C4C4"/>
<circle r="2" transform="matrix(1 0 0 -1 343 19.5)" fill="#C4C4C4"/>
<circle r="2" transform="matrix(1 0 0 -1 350 19.5)" fill="#C4C4C4"/>
<circle r="2" transform="matrix(1 0 0 -1 357 19.5)" fill="#C4C4C4"/>
<circle r="2" transform="matrix(1 0 0 -1 364 19.5)" fill="#C4C4C4"/>
<circle r="2" transform="matrix(1 0 0 -1 371 19.5)" fill="#C4C4C4"/>
<circle r="2" transform="matrix(1 0 0 -1 378 19.5)" fill="#C4C4C4"/>
<circle r="2" transform="matrix(1 0 0 -1 385 19.5)" fill="#C4C4C4"/>
<circle r="2" transform="matrix(1 0 0 -1 392 19.5)" fill="#C4C4C4"/>
<circle r="2" transform="matrix(1 0 0 -1 399 19.5)" fill="#C4C4C4"/>
</g>
<g opacity="0.3">
<circle r="2.25" transform="matrix(1 0 0 -1 0.25 11.25)" fill="#C4C4C4"/>
<circle r="2.25" transform="matrix(1 0 0 -1 6.75 11.25)" fill="#C4C4C4"/>
<circle r="2.25" transform="matrix(1 0 0 -1 13.25 11.25)" fill="#C4C4C4"/>
<circle r="2.25" transform="matrix(1 0 0 -1 19.75 11.25)" fill="#C4C4C4"/>
<circle r="2.25" transform="matrix(1 0 0 -1 26.25 11.25)" fill="#C4C4C4"/>
<circle r="2.25" transform="matrix(1 0 0 -1 32.75 11.25)" fill="#C4C4C4"/>
<circle r="2.25" transform="matrix(1 0 0 -1 39.25 11.25)" fill="#C4C4C4"/>
<circle r="2.25" transform="matrix(1 0 0 -1 45.75 11.25)" fill="#C4C4C4"/>
<circle r="2.25" transform="matrix(1 0 0 -1 52.25 11.25)" fill="#C4C4C4"/>
<circle r="2.25" transform="matrix(1 0 0 -1 58.75 11.25)" fill="#C4C4C4"/>
<circle r="2.25" transform="matrix(1 0 0 -1 65.25 11.25)" fill="#C4C4C4"/>
<circle r="2.25" transform="matrix(1 0 0 -1 71.75 11.25)" fill="#C4C4C4"/>
<circle r="2.25" transform="matrix(1 0 0 -1 78.25 11.25)" fill="#C4C4C4"/>
<circle r="2.25" transform="matrix(1 0 0 -1 84.75 11.25)" fill="#C4C4C4"/>
<circle r="2.25" transform="matrix(1 0 0 -1 91.25 11.25)" fill="#C4C4C4"/>
<circle r="2.25" transform="matrix(1 0 0 -1 97.75 11.25)" fill="#C4C4C4"/>
<circle r="2.25" transform="matrix(1 0 0 -1 104.25 11.25)" fill="#C4C4C4"/>
<circle r="2.25" transform="matrix(1 0 0 -1 110.75 11.25)" fill="#C4C4C4"/>
<circle r="2.25" transform="matrix(1 0 0 -1 117.25 11.25)" fill="#C4C4C4"/>
<circle r="2.25" transform="matrix(1 0 0 -1 123.75 11.25)" fill="#C4C4C4"/>
<circle r="2.25" transform="matrix(1 0 0 -1 130.25 11.25)" fill="#C4C4C4"/>
<circle r="2.25" transform="matrix(1 0 0 -1 136.75 11.25)" fill="#C4C4C4"/>
<circle r="2.25" transform="matrix(1 0 0 -1 143.25 11.25)" fill="#C4C4C4"/>
<circle r="2.25" transform="matrix(1 0 0 -1 149.75 11.25)" fill="#C4C4C4"/>
<circle r="2.25" transform="matrix(1 0 0 -1 156.25 11.25)" fill="#C4C4C4"/>
<circle r="2.25" transform="matrix(1 0 0 -1 162.75 11.25)" fill="#C4C4C4"/>
<circle r="2.25" transform="matrix(1 0 0 -1 169.25 11.25)" fill="#C4C4C4"/>
<circle r="2.25" transform="matrix(1 0 0 -1 175.75 11.25)" fill="#C4C4C4"/>
<circle r="2.25" transform="matrix(1 0 0 -1 182.25 11.25)" fill="#C4C4C4"/>
<circle r="2.25" transform="matrix(1 0 0 -1 188.75 11.25)" fill="#C4C4C4"/>
<circle r="2.25" transform="matrix(1 0 0 -1 195.25 11.25)" fill="#C4C4C4"/>
<circle r="2.25" transform="matrix(1 0 0 -1 201.75 11.25)" fill="#C4C4C4"/>
<circle r="2.25" transform="matrix(1 0 0 -1 208.25 11.25)" fill="#C4C4C4"/>
<circle r="2.25" transform="matrix(1 0 0 -1 214.75 11.25)" fill="#C4C4C4"/>
<circle r="2.25" transform="matrix(1 0 0 -1 221.25 11.25)" fill="#C4C4C4"/>
<circle r="2.25" transform="matrix(1 0 0 -1 227.75 11.25)" fill="#C4C4C4"/>
<circle r="2.25" transform="matrix(1 0 0 -1 234.25 11.25)" fill="#C4C4C4"/>
<circle r="2.25" transform="matrix(1 0 0 -1 240.75 11.25)" fill="#C4C4C4"/>
<circle r="2.25" transform="matrix(1 0 0 -1 247.25 11.25)" fill="#C4C4C4"/>
<circle r="2.25" transform="matrix(1 0 0 -1 253.75 11.25)" fill="#C4C4C4"/>
<circle r="2.25" transform="matrix(1 0 0 -1 260.25 11.25)" fill="#C4C4C4"/>
<circle r="2.25" transform="matrix(1 0 0 -1 266.75 11.25)" fill="#C4C4C4"/>
<circle r="2.25" transform="matrix(1 0 0 -1 273.25 11.25)" fill="#C4C4C4"/>
<circle r="2.25" transform="matrix(1 0 0 -1 279.75 11.25)" fill="#C4C4C4"/>
<circle r="2.25" transform="matrix(1 0 0 -1 286.25 11.25)" fill="#C4C4C4"/>
<circle r="2.25" transform="matrix(1 0 0 -1 292.75 11.25)" fill="#C4C4C4"/>
<circle r="2.25" transform="matrix(1 0 0 -1 299.25 11.25)" fill="#C4C4C4"/>
<circle r="2.25" transform="matrix(1 0 0 -1 305.75 11.25)" fill="#C4C4C4"/>
<circle r="2.25" transform="matrix(1 0 0 -1 312.25 11.25)" fill="#C4C4C4"/>
<circle r="2.25" transform="matrix(1 0 0 -1 318.75 11.25)" fill="#C4C4C4"/>
<circle r="2.25" transform="matrix(1 0 0 -1 325.25 11.25)" fill="#C4C4C4"/>
<circle r="2.25" transform="matrix(1 0 0 -1 331.75 11.25)" fill="#C4C4C4"/>
<circle r="2.25" transform="matrix(1 0 0 -1 338.25 11.25)" fill="#C4C4C4"/>
<circle r="2.25" transform="matrix(1 0 0 -1 344.75 11.25)" fill="#C4C4C4"/>
<circle r="2.25" transform="matrix(1 0 0 -1 351.25 11.25)" fill="#C4C4C4"/>
<circle r="2.25" transform="matrix(1 0 0 -1 357.75 11.25)" fill="#C4C4C4"/>
<circle r="2.25" transform="matrix(1 0 0 -1 364.25 11.25)" fill="#C4C4C4"/>
<circle r="2.25" transform="matrix(1 0 0 -1 370.75 11.25)" fill="#C4C4C4"/>
<circle r="2.25" transform="matrix(1 0 0 -1 377.25 11.25)" fill="#C4C4C4"/>
<circle r="2.25" transform="matrix(1 0 0 -1 383.75 11.25)" fill="#C4C4C4"/>
<circle r="2.25" transform="matrix(1 0 0 -1 390.25 11.25)" fill="#C4C4C4"/>
<circle r="2.25" transform="matrix(1 0 0 -1 396.75 11.25)" fill="#C4C4C4"/>
</g>
<g opacity="0.3">
<circle r="2.5" transform="matrix(1 0 0 -1 0.5 2.5)" fill="#C4C4C4"/>
<circle r="2.5" transform="matrix(1 0 0 -1 7.5 2.5)" fill="#C4C4C4"/>
<circle r="2.5" transform="matrix(1 0 0 -1 14.5 2.5)" fill="#C4C4C4"/>
<circle r="2.5" transform="matrix(1 0 0 -1 21.5 2.5)" fill="#C4C4C4"/>
<circle r="2.5" transform="matrix(1 0 0 -1 28.5 2.5)" fill="#C4C4C4"/>
<circle r="2.5" transform="matrix(1 0 0 -1 35.5 2.5)" fill="#C4C4C4"/>
<circle r="2.5" transform="matrix(1 0 0 -1 42.5 2.5)" fill="#C4C4C4"/>
<circle r="2.5" transform="matrix(1 0 0 -1 49.5 2.5)" fill="#C4C4C4"/>
<circle r="2.5" transform="matrix(1 0 0 -1 56.5 2.5)" fill="#C4C4C4"/>
<circle r="2.5" transform="matrix(1 0 0 -1 63.5 2.5)" fill="#C4C4C4"/>
<circle r="2.5" transform="matrix(1 0 0 -1 70.5 2.5)" fill="#C4C4C4"/>
<circle r="2.5" transform="matrix(1 0 0 -1 77.5 2.5)" fill="#C4C4C4"/>
<circle r="2.5" transform="matrix(1 0 0 -1 84.5 2.5)" fill="#C4C4C4"/>
<circle r="2.5" transform="matrix(1 0 0 -1 91.5 2.5)" fill="#C4C4C4"/>
<circle r="2.5" transform="matrix(1 0 0 -1 98.5 2.5)" fill="#C4C4C4"/>
<circle r="2.5" transform="matrix(1 0 0 -1 105.5 2.5)" fill="#C4C4C4"/>
<circle r="2.5" transform="matrix(1 0 0 -1 112.5 2.5)" fill="#C4C4C4"/>
<circle r="2.5" transform="matrix(1 0 0 -1 119.5 2.5)" fill="#C4C4C4"/>
<circle r="2.5" transform="matrix(1 0 0 -1 126.5 2.5)" fill="#C4C4C4"/>
<circle r="2.5" transform="matrix(1 0 0 -1 133.5 2.5)" fill="#C4C4C4"/>
<circle r="2.5" transform="matrix(1 0 0 -1 140.5 2.5)" fill="#C4C4C4"/>
<circle r="2.5" transform="matrix(1 0 0 -1 147.5 2.5)" fill="#C4C4C4"/>
<circle r="2.5" transform="matrix(1 0 0 -1 154.5 2.5)" fill="#C4C4C4"/>
<circle r="2.5" transform="matrix(1 0 0 -1 161.5 2.5)" fill="#C4C4C4"/>
<circle r="2.5" transform="matrix(1 0 0 -1 168.5 2.5)" fill="#C4C4C4"/>
<circle r="2.5" transform="matrix(1 0 0 -1 175.5 2.5)" fill="#C4C4C4"/>
<circle r="2.5" transform="matrix(1 0 0 -1 182.5 2.5)" fill="#C4C4C4"/>
<circle r="2.5" transform="matrix(1 0 0 -1 189.5 2.5)" fill="#C4C4C4"/>
<circle r="2.5" transform="matrix(1 0 0 -1 196.5 2.5)" fill="#C4C4C4"/>
<circle r="2.5" transform="matrix(1 0 0 -1 203.5 2.5)" fill="#C4C4C4"/>
<circle r="2.5" transform="matrix(1 0 0 -1 210.5 2.5)" fill="#C4C4C4"/>
<circle r="2.5" transform="matrix(1 0 0 -1 217.5 2.5)" fill="#C4C4C4"/>
<circle r="2.5" transform="matrix(1 0 0 -1 224.5 2.5)" fill="#C4C4C4"/>
<circle r="2.5" transform="matrix(1 0 0 -1 231.5 2.5)" fill="#C4C4C4"/>
<circle r="2.5" transform="matrix(1 0 0 -1 238.5 2.5)" fill="#C4C4C4"/>
<circle r="2.5" transform="matrix(1 0 0 -1 245.5 2.5)" fill="#C4C4C4"/>
<circle r="2.5" transform="matrix(1 0 0 -1 252.5 2.5)" fill="#C4C4C4"/>
<circle r="2.5" transform="matrix(1 0 0 -1 259.5 2.5)" fill="#C4C4C4"/>
<circle r="2.5" transform="matrix(1 0 0 -1 266.5 2.5)" fill="#C4C4C4"/>
<circle r="2.5" transform="matrix(1 0 0 -1 273.5 2.5)" fill="#C4C4C4"/>
<circle r="2.5" transform="matrix(1 0 0 -1 280.5 2.5)" fill="#C4C4C4"/>
<circle r="2.5" transform="matrix(1 0 0 -1 287.5 2.5)" fill="#C4C4C4"/>
<circle r="2.5" transform="matrix(1 0 0 -1 294.5 2.5)" fill="#C4C4C4"/>
<circle r="2.5" transform="matrix(1 0 0 -1 301.5 2.5)" fill="#C4C4C4"/>
<circle r="2.5" transform="matrix(1 0 0 -1 308.5 2.5)" fill="#C4C4C4"/>
<circle r="2.5" transform="matrix(1 0 0 -1 315.5 2.5)" fill="#C4C4C4"/>
<circle r="2.5" transform="matrix(1 0 0 -1 322.5 2.5)" fill="#C4C4C4"/>
<circle r="2.5" transform="matrix(1 0 0 -1 329.5 2.5)" fill="#C4C4C4"/>
<circle r="2.5" transform="matrix(1 0 0 -1 336.5 2.5)" fill="#C4C4C4"/>
<circle r="2.5" transform="matrix(1 0 0 -1 343.5 2.5)" fill="#C4C4C4"/>
<circle r="2.5" transform="matrix(1 0 0 -1 350.5 2.5)" fill="#C4C4C4"/>
<circle r="2.5" transform="matrix(1 0 0 -1 357.5 2.5)" fill="#C4C4C4"/>
<circle r="2.5" transform="matrix(1 0 0 -1 364.5 2.5)" fill="#C4C4C4"/>
<circle r="2.5" transform="matrix(1 0 0 -1 371.5 2.5)" fill="#C4C4C4"/>
<circle r="2.5" transform="matrix(1 0 0 -1 378.5 2.5)" fill="#C4C4C4"/>
<circle r="2.5" transform="matrix(1 0 0 -1 385.5 2.5)" fill="#C4C4C4"/>
<circle r="2.5" transform="matrix(1 0 0 -1 392.5 2.5)" fill="#C4C4C4"/>
<circle r="2.5" transform="matrix(1 0 0 -1 399.5 2.5)" fill="#C4C4C4"/>
</g>
</svg>
