<svg width="80" height="28" viewBox="0 0 80 28" fill="none" xmlns="http://www.w3.org/2000/svg">
<path d="M38.975 27.5063C37.65 27.0688 36.875 25.6938 36.7688 23.5938C36.7375 22.9938 36.7563 22.8188 36.8938 22.25C37.0813 21.4875 37.4063 20.5563 38.1438 18.6875C38.8188 16.9688 38.9375 16.5875 39.2125 15.2188C39.5063 13.75 39.875 11.675 39.875 11.5125C39.875 11.4375 39.9 11.3687 39.925 11.35C39.9563 11.3312 40.0813 11.9312 40.2125 12.675C40.8 16.0563 40.9375 16.6 41.8313 19C42.3125 20.3125 42.7 21.4875 42.8563 22.125C43.0188 22.7938 43 24.125 42.825 24.9688C42.5625 26.2063 41.925 27.1125 41.0813 27.4438C40.5625 27.6438 39.4938 27.675 38.975 27.5063Z" fill="#376D90"/>
<path d="M29.2063 21.6937C27.8125 21.2125 27.35 19.7 28.25 18.5625C28.6875 18.0125 29.6 17.5437 31.5313 16.875C32.8063 16.4375 33.5188 16.1 34.2875 15.5875C34.8938 15.1875 35.7875 14.3625 36.2625 13.7625L36.5875 13.3562L36.675 13.5687C36.975 14.2937 36.3375 16.2 35.225 17.9062C34.4688 19.0625 33.475 20.175 32.5938 20.8437C32.1563 21.175 31.225 21.6437 30.8 21.7437C30.3563 21.85 29.5813 21.825 29.2063 21.6937Z" fill="#376D90"/>
<path d="M48.5187 21.6625C47.6249 21.3688 46.7624 20.7688 45.8312 19.7938C44.4062 18.3063 43.1499 16.075 42.8687 14.5438C42.7999 14.15 42.8312 13.6063 42.9374 13.4375C42.9874 13.3563 43.0124 13.3688 43.1062 13.5C43.3624 13.8688 43.9687 14.5188 44.3437 14.8375C45.2437 15.6 45.8499 15.925 47.6874 16.65C50.0312 17.5688 50.5249 17.8125 51.1124 18.3438C51.5749 18.7625 51.7812 19.2125 51.7812 19.8125C51.7812 20.175 51.7499 20.35 51.6374 20.5688C51.4124 21.0313 51.0937 21.35 50.6374 21.575C50.2624 21.7625 50.1624 21.7813 49.5937 21.7938C49.0749 21.8125 48.8937 21.7875 48.5187 21.6625Z" fill="#376D90"/>
<path d="M16.0625 20.3125C14.575 20.1187 13.2688 19.5 12.475 18.6063C11.5813 17.6125 11.15 16.1125 11.3125 14.6063C11.5438 12.4938 12.7375 11.0563 14.7813 10.4188C15.5625 10.175 16.1438 10.1063 17.075 10.1438C17.9625 10.1813 18.425 10.275 19.7063 10.6688C20.2063 10.825 20.4625 10.875 20.5063 10.8313C20.6 10.7375 16.025 6.675 14.0563 5.1125C11.0313 2.70626 9.2375 1.83126 6.9125 1.62501C5.06875 1.45626 3.55 1.89376 2.55625 2.87501C1.79375 3.62501 1.53125 4.26876 1.53125 5.37501C1.53125 6.20001 1.63125 6.5875 1.98125 7.10625C2.21875 7.45625 2.44375 7.65625 2.85625 7.86875C3.45625 8.16875 4.58125 8.2875 5.05 8.0875C5.3 7.9875 5.625 7.70625 5.625 7.6C5.625 7.5625 5.48125 7.45625 5.3125 7.3625C4.9 7.13125 4.73125 6.80625 4.725 6.25C4.71875 5.58125 5 5.18751 5.725 4.86251C6.1375 4.67501 6.95 4.66251 7.40625 4.83751C8.125 5.1125 8.54375 5.55625 8.7625 6.275C9.13125 7.4875 8.475 8.725 7.1125 9.375C6.45625 9.69375 5.89375 9.8125 5.05625 9.8125C2.58125 9.8125 0.775 8.7375 0.1625 6.89375C0.0125 6.45 0 6.31875 0 5.4C0 4.51251 0.01875 4.35001 0.15 3.96251C0.775 2.11251 2.175 0.956256 4.3125 0.531256C5.00625 0.393756 6.4125 0.343756 7.1875 0.431256C9.48125 0.693756 11.5875 1.63751 14.0938 3.53126C15.225 4.38751 15.6938 4.7875 18.0313 6.90625C19.0313 7.8125 20.0063 8.6875 20.2063 8.85C20.7 9.25625 20.7563 9.18125 20.5063 8.44375C20.0875 7.2 19.975 5.56251 20.2375 4.56251C20.625 3.10626 21.55 1.86876 22.7563 1.19376C23.8125 0.606256 25.3313 0.375006 26.75 0.593756C27.5 0.706256 27.9125 0.831256 28.4875 1.11251C29.4625 1.59376 30.1875 2.30626 30.6313 3.21876C31.0188 4.01876 31.0688 4.53126 30.8313 5.36875C30.65 6.03125 30.325 6.5625 29.7875 7.09375C29.0063 7.875 28.2313 8.1875 27.0938 8.1875C25.8438 8.1875 24.9188 7.74375 24.4688 6.93125C24.3 6.625 24.2813 6.5375 24.2813 6.03125C24.2813 5.53751 24.3063 5.425 24.4563 5.10626C24.7438 4.52501 25.1313 4.31251 25.9063 4.31251C26.5125 4.31251 26.95 4.52501 27.2125 4.95625C27.3688 5.21251 27.4 5.3375 27.425 5.78125C27.4438 6.08125 27.425 6.3875 27.3813 6.50625L27.3125 6.70625L27.625 6.675C28.0625 6.63125 28.6938 6.30625 28.9938 5.9625C29.6938 5.16251 29.7063 3.85626 29.0125 2.98751C28.55 2.40001 27.75 1.91876 26.8875 1.70626C26.2875 1.55626 25.1188 1.57501 24.4688 1.74376C22.6688 2.20626 21.7125 3.43126 21.5375 5.50001C21.4938 6.00625 21.5875 7.0375 21.725 7.60625C22.2625 9.74375 23.7875 11.1563 26.275 11.8125C27.4625 12.125 28.25 12.2188 29.7813 12.2125C31.0313 12.2125 31.225 12.2 31.9375 12.0438C35.9625 11.1875 38.3 8.9625 38.6313 5.68125C38.7875 4.08751 38.3875 2.67501 37.5875 2.01251C36.6438 1.22501 34.9125 1.08751 34.075 1.73126C33.6 2.09376 33.4188 2.95626 33.7063 3.46876C33.8563 3.73126 34.3688 4.12501 34.5688 4.12501C34.6563 4.12501 34.6875 4.08126 34.6875 3.95626C34.6875 3.65626 34.9688 3.27501 35.2813 3.15626C35.8 2.95626 36.3125 3.19376 36.5938 3.78126C36.7375 4.06876 36.7625 4.18126 36.725 4.41876C36.65 4.9875 36.2063 5.4875 35.6 5.6875C35.45 5.7375 35.1625 5.75626 34.8438 5.7375C33.5625 5.66876 32.3938 4.63751 32.275 3.46251C32.1188 1.97501 33.0313 0.787506 34.575 0.462506C35.1188 0.343756 36.2438 0.381256 36.875 0.531256C38.2125 0.856256 39.2688 1.78751 39.725 3.04376C39.8188 3.30001 39.925 3.49376 39.9563 3.48126C39.9938 3.46876 40.0688 3.31876 40.1313 3.13751C40.4688 2.14376 41.175 1.31876 42.0688 0.881256C42.8688 0.493756 43.2625 0.406256 44.2813 0.406256C44.9438 0.406256 45.2438 0.437506 45.525 0.525006C46.9938 0.968756 47.7 1.92501 47.6125 3.35001C47.575 3.96251 47.4 4.35626 46.9688 4.78751C46.2813 5.47501 45.1 5.79376 44.2063 5.53126C44.025 5.47501 43.775 5.33125 43.6063 5.18126C43.05 4.70001 43.0125 4.03751 43.5063 3.47501C43.9438 2.98126 44.4438 2.94376 44.875 3.37501C45.0188 3.51876 45.1438 3.72501 45.1875 3.86876C45.2625 4.16251 45.2938 4.16876 45.6125 4.00626C46.0688 3.76876 46.3375 3.33751 46.3375 2.81251C46.3438 2.13126 45.8375 1.60001 45 1.41251C43.5625 1.08126 42.2313 1.66876 41.65 2.89376C41.3625 3.50626 41.25 4.06876 41.25 4.97501C41.25 6.875 41.85 8.40625 43.1 9.65C44.2438 10.7938 46.0188 11.675 48.0125 12.075C48.625 12.2 48.9 12.2188 50.0625 12.2125C53.1938 12.2063 55.4188 11.4813 56.825 10.0125C57.9188 8.8625 58.4625 7.2625 58.35 5.46876C58.2813 4.26251 57.9938 3.51251 57.3375 2.81251C56.6688 2.10626 55.8313 1.74376 54.575 1.61876C52.8563 1.44376 51.1625 2.23126 50.575 3.48751C50.425 3.80626 50.4063 3.91876 50.4063 4.50001C50.4063 5.07501 50.425 5.20001 50.575 5.50626C50.875 6.15 51.4875 6.60625 52.15 6.675L52.45 6.70625L52.4063 6.44375C52.3563 6.125 52.475 5.35626 52.6313 5.05626C52.7813 4.75626 53.1313 4.46251 53.4188 4.38126C53.75 4.28751 54.4063 4.29376 54.6438 4.39376C55.2313 4.64376 55.5688 5.19376 55.6125 5.98126C55.6375 6.44375 55.625 6.53125 55.475 6.8375C55.0563 7.69375 54.0688 8.1875 52.7813 8.1875C52.1125 8.1875 51.6313 8.075 51.0313 7.7875C49.5 7.0375 48.5875 5.10626 49.0625 3.61876C49.5313 2.16251 50.925 1.03751 52.75 0.643756C53.5313 0.475006 55.025 0.493756 55.7688 0.675006C57.7063 1.15626 59.0688 2.49376 59.6313 4.46876C59.9688 5.65625 59.8125 7.31875 59.2375 8.58125C58.85 9.425 59.1063 9.275 61 7.5625C63.875 4.9625 64.9563 4.05001 66.25 3.12501C68.1688 1.75626 70.0688 0.881256 71.9063 0.518756C72.6938 0.362506 74.6313 0.362506 75.375 0.518756C77.4438 0.950006 78.7688 1.90626 79.525 3.50626C79.8625 4.21251 79.9688 4.68126 79.9625 5.43751C79.9563 7.34375 78.9 8.8125 77.0813 9.44375C76.1 9.78125 74.475 9.91875 73.6563 9.725C71.9813 9.33125 70.8438 7.96875 71.0563 6.625C71.1875 5.81876 71.6313 5.22501 72.3625 4.88751C72.6625 4.75001 72.8063 4.71876 73.2813 4.71876C73.9938 4.71876 74.4125 4.85626 74.7813 5.21251C75.4438 5.85001 75.2938 6.96875 74.4875 7.38125C74.3563 7.45 74.25 7.525 74.25 7.55625C74.25 7.675 74.5188 7.9375 74.7688 8.05625C75.2938 8.3125 76.4063 8.19375 77.1375 7.8C77.9688 7.35625 78.375 6.5625 78.375 5.37501C78.375 4.36876 78.0688 3.57501 77.4188 2.92501C76.5125 2.01876 75.3563 1.61251 73.6875 1.61251C70.5625 1.61251 68.2938 2.85626 62.7813 7.61875C60.075 9.95 59.1813 10.7688 59.2438 10.8313C59.2875 10.875 59.5938 10.8125 60.2313 10.6375C62.2 10.0813 63.075 10 64.3313 10.2563C65.5938 10.5125 66.4438 10.9438 67.25 11.75C67.8625 12.3563 68.225 12.9813 68.45 13.7938C68.6313 14.4563 68.6438 15.9438 68.475 16.5938C68.2063 17.65 67.55 18.6313 66.725 19.2125C65.1125 20.3563 62.6625 20.6875 60.875 19.9937C59.2313 19.3625 58.0625 17.8313 58.225 16.5375C58.375 15.35 59.15 14.65 60.375 14.575C61.125 14.5313 61.5563 14.6625 61.9438 15.05C62.2813 15.3938 62.4063 15.7375 62.3563 16.225C62.275 17.0375 61.7438 17.4875 60.85 17.5188C60.6375 17.525 60.5 17.5625 60.5 17.6C60.5 17.7063 60.925 18.2563 61.1688 18.4625C62.0375 19.2 63.9625 19.1562 65.3625 18.3688C65.8875 18.075 66.5688 17.3563 66.8063 16.85C67.525 15.3563 67.1563 13.3813 65.9813 12.3438C65.6063 12.0125 64.8188 11.6063 64.2813 11.4688C63.1375 11.1688 61.65 11.3438 59.4375 12.0313C57.6813 12.5813 54.6938 13.1625 52.25 13.4438C50.7188 13.6125 49.075 13.6313 48.1125 13.475C45.1438 13.0063 42.45 11.5063 41.0625 9.55625C40.7625 9.125 40.2688 8.2 40.075 7.6875L39.9875 7.46875L39.925 7.625C39.3813 8.89375 38.6875 9.95 37.9 10.6875C35.65 12.7875 32.25 13.9375 29.0125 13.7C26.575 13.5125 22.8875 12.7938 20.375 12.0063C18.7875 11.5125 17.4375 11.275 16.5313 11.3313C15.3813 11.4063 14.55 11.7625 13.8063 12.5C13.0438 13.2563 12.7438 14.0188 12.7438 15.1875C12.7375 16.3063 13.0313 17.0313 13.7813 17.7813C14.5125 18.5188 15.4625 18.9188 16.6 18.9813C17.8063 19.05 18.675 18.7 19.2 17.9375C19.325 17.75 19.4375 17.5813 19.4375 17.5625C19.4375 17.5438 19.25 17.5188 19.0188 17.5125C18.225 17.4938 17.7188 17.1063 17.5625 16.4063C17.3313 15.3563 18.0813 14.5625 19.3125 14.5625C20.4 14.5625 21.1875 15.0375 21.5125 15.8938C22.1688 17.6188 20.75 19.5625 18.4 20.1625C17.7313 20.3313 16.7063 20.4 16.0625 20.3125Z" fill="#376D90"/>
</svg>
